<svg width="30" height="30" viewBox="0 0 30 30" fill="none" xmlns="http://www.w3.org/2000/svg">
<path fill-rule="evenodd" clip-rule="evenodd" d="M19.512 4.87277C17.3282 3.89973 14.8884 3.65867 12.5564 4.18555C10.2244 4.71243 8.1252 5.97902 6.57187 7.79642C5.01854 9.61381 4.0943 11.8846 3.937 14.2702C3.77969 16.6558 4.39775 19.0283 5.69899 21.034C7.00023 23.0396 8.91494 24.5708 11.1575 25.3994C13.4002 26.2279 15.8505 26.3093 18.1432 25.6314C20.4358 24.9536 22.4479 23.5528 23.8794 21.6379C25.3107 19.7234 26.0848 17.3975 26.0864 15.0071C26.0864 15.0068 26.0864 15.0075 26.0864 15.0071M26.0864 15.0071V13.8072C26.0864 12.7266 26.9624 11.8507 28.0429 11.8507C29.1234 11.8507 29.9994 12.7266 29.9994 13.8072V15.0071C29.9975 18.2417 28.9501 21.3901 27.0134 23.9808C25.0767 26.5715 22.3545 28.4667 19.2526 29.3838C16.1508 30.3009 12.8356 30.1908 9.8015 29.0698C6.76738 27.9489 4.17689 25.8772 2.41639 23.1637C0.655885 20.4502 -0.180309 17.2403 0.0325145 14.0128C0.245338 10.7852 1.49578 7.71291 3.59734 5.25408C5.69891 2.79526 8.539 1.08164 11.694 0.368797C14.8491 -0.344043 18.15 -0.0179085 21.1046 1.29856C22.0915 1.73834 22.5352 2.89496 22.0954 3.88195C21.6556 4.86894 20.499 5.31254 19.512 4.87277" fill="#1F53FF"/>
<path fill-rule="evenodd" clip-rule="evenodd" d="M29.4265 3.18758C30.1909 3.95125 30.1915 5.19003 29.4279 5.95446L16.3847 19.0107C16.0178 19.3779 15.5201 19.5843 15.001 19.5844C14.482 19.5846 13.9841 19.3784 13.6171 19.0114L9.70414 15.0984C8.94009 14.3344 8.94009 13.0956 9.70414 12.3316C10.4682 11.5675 11.707 11.5675 12.471 12.3316L14.9999 14.8604L26.6596 3.18897C27.4233 2.42453 28.6621 2.42391 29.4265 3.18758Z" fill="#1F53FF"/>
</svg>
