<svg width="60" height="76" viewBox="0 0 60 76" fill="none" xmlns="http://www.w3.org/2000/svg">
<circle cx="30" cy="30" r="30" fill="#4D4D4D"/>
<path d="M22.9686 74H25.1327C26.453 74 27.0467 73.3438 27.0467 72.4766C27.0467 71.6016 26.4373 71.1094 25.8748 71.0781V71.0234C26.3944 70.8906 26.828 70.5352 26.828 69.8281C26.828 68.9883 26.2459 68.3438 25.0389 68.3438H22.9686V74ZM23.828 73.2656V71.4609H25.0858C25.7655 71.4609 26.1952 71.8945 26.1952 72.4375C26.1952 72.9062 25.867 73.2617 25.0545 73.2656H23.828ZM23.828 70.7891V69.0781H24.9842C25.66 69.0781 25.9842 69.4297 25.9842 69.8984C25.9842 70.4414 25.5389 70.7852 24.9686 70.7891H23.828ZM30.8867 69.8359H31.7227C31.6953 68.9219 30.8945 68.2656 29.7461 68.2656C28.6016 68.2656 27.7344 68.9141 27.7305 69.8906C27.7344 70.6797 28.2969 71.1406 29.207 71.3906L29.8789 71.5703C30.4766 71.7305 30.9453 71.9297 30.9492 72.4219C30.9453 72.9766 30.4219 73.3398 29.6992 73.3438C29.0391 73.3398 28.4922 73.0469 28.4414 72.4297H27.582C27.6367 73.4609 28.4336 74.0938 29.6992 74.0938C31.0352 74.0938 31.7969 73.3945 31.8008 72.4375C31.7969 71.4141 30.8906 71.0195 30.168 70.8438L29.6211 70.6953C29.1719 70.5898 28.5898 70.3789 28.5898 69.8438C28.5938 69.3633 29.0312 69.0078 29.7227 69.0078C30.3711 69.0078 30.832 69.3086 30.8867 69.8359ZM36.3908 70.1875H37.258C37.0666 68.9727 36.1173 68.2656 34.922 68.2656C33.4572 68.2656 32.3752 69.3633 32.3752 71.1719C32.3752 72.9805 33.4494 74.0781 34.922 74.0781C36.1681 74.0781 37.0783 73.2969 37.258 72.1797L36.3908 72.1719C36.2423 72.8945 35.6408 73.293 34.9298 73.2891C33.9572 73.293 33.2306 72.5508 33.2267 71.1719C33.2306 69.8008 33.9533 69.0508 34.9298 69.0547C35.6486 69.0508 36.2541 69.457 36.3908 70.1875Z" fill="#8C8C8C"/>
<g clip-path="url(#clip0_1150_1306)">
<path fill-rule="evenodd" clip-rule="evenodd" d="M30 10C41.0465 10 50 18.9535 50 30C50 41.0465 41.0465 50 30 50C18.9535 50 10 41.0465 10 30C10 18.9535 18.9535 10 30 10Z" fill="#F0B90B"/>
<path d="M20.992 30L21.0064 35.2885L25.5 37.9327V41.0288L18.3766 36.851V28.4535L20.992 30ZM20.992 24.7115V27.7933L18.375 26.2452V23.1635L20.992 21.6154L23.6218 23.1635L20.992 24.7115ZM27.3766 23.1635L29.9936 21.6154L32.6234 23.1635L29.9936 24.7115L27.3766 23.1635Z" fill="white"/>
<path d="M22.883 34.1923V31.0962L25.5 32.6442V35.726L22.883 34.1923ZM27.3766 39.0417L29.9936 40.5897L32.6234 39.0417V42.1234L29.9936 43.6715L27.3766 42.1234V39.0417ZM36.3766 23.1635L38.9936 21.6154L41.6234 23.1635V26.2452L38.9936 27.7933V24.7115L36.3766 23.1635ZM38.9936 35.2885L39.008 30L41.625 28.4519V36.8494L34.5016 41.0272V37.9311L38.9936 35.2885Z" fill="white"/>
<path d="M37.117 34.1923L34.5 35.726V32.6442L37.117 31.0962V34.1923Z" fill="white"/>
<path d="M37.117 25.8077L37.1314 28.9038L32.625 31.5481V36.8494L30.008 38.383L27.391 36.8494V31.5481L22.8846 28.9038V25.8077L25.5128 24.2596L29.992 26.9167L34.4984 24.2596L37.1282 25.8077H37.117ZM22.883 20.5208L29.9936 16.3285L37.117 20.5208L34.5 22.0689L29.9936 19.4119L25.5 22.0689L22.883 20.5208Z" fill="white"/>
</g>
<defs>
<clipPath id="clip0_1150_1306">
<rect width="40" height="40" fill="white" transform="translate(10 10)"/>
</clipPath>
</defs>
</svg>
