<svg width="60" height="76" viewBox="0 0 60 76" fill="none" xmlns="http://www.w3.org/2000/svg">
<circle cx="30" cy="30" r="29.5" fill="#4D4D4D" stroke="#1F53FF"/>
<path d="M22.6756 74H25.0741C26.3514 74 27.0233 73.3359 27.0272 72.4375C27.0233 71.6016 26.4217 71.0938 25.785 71.0625V71.0078C26.367 70.8789 26.8045 70.4609 26.8006 69.7969C26.8045 68.9453 26.1717 68.3438 24.9256 68.3438H22.6756V74ZM23.8475 73.0312V71.5156H24.8709C25.4491 71.5156 25.8123 71.8516 25.8084 72.3281C25.8123 72.7539 25.5194 73.0352 24.8397 73.0312H23.8475ZM23.8475 70.7109V69.2969H24.7772C25.3123 69.2969 25.617 69.5742 25.6131 69.9844C25.617 70.4375 25.2459 70.7148 24.7537 70.7109H23.8475ZM30.6797 69.9609H31.8047C31.7891 68.9609 30.9648 68.2656 29.7109 68.2656C28.4727 68.2656 27.5664 68.9492 27.5703 69.9766C27.5703 70.8047 28.1562 71.2812 29.1094 71.5156L29.7266 71.6641C30.3438 71.8164 30.6953 71.9961 30.6953 72.3828C30.6953 72.8047 30.2969 73.0938 29.6797 73.0938C29.0547 73.0938 28.6016 72.8047 28.5625 72.2344H27.4219C27.457 73.4492 28.3281 74.082 29.6953 74.0781C31.0742 74.082 31.8789 73.418 31.8828 72.3828C31.8789 71.4414 31.1562 70.9492 30.1875 70.7266L29.6797 70.6016C29.1914 70.4922 28.7695 70.3086 28.7734 69.8984C28.7773 69.5234 29.1094 69.25 29.7031 69.25C30.2773 69.25 30.6328 69.5117 30.6797 69.9609ZM36.2697 70.3125H37.4572C37.3009 69.0117 36.3166 68.2656 35.0119 68.2656C33.5197 68.2656 32.3791 69.3242 32.3791 71.1719C32.3791 73.0117 33.5002 74.0781 35.0119 74.0781C36.4494 74.0781 37.3283 73.125 37.4572 72.0781L36.2697 72.0703C36.1564 72.6836 35.672 73.0352 35.0275 73.0391C34.1642 73.0352 33.5744 72.3906 33.5744 71.1719C33.5744 69.9805 34.1564 69.3086 35.0353 69.3047C35.6955 69.3086 36.1759 69.6875 36.2697 70.3125Z" fill="#1F53FF"/>
<g clip-path="url(#clip0_1150_1308)">
<path fill-rule="evenodd" clip-rule="evenodd" d="M30 10C41.0465 10 50 18.9535 50 30C50 41.0465 41.0465 50 30 50C18.9535 50 10 41.0465 10 30C10 18.9535 18.9535 10 30 10Z" fill="#F0B90B"/>
<path d="M20.992 30L21.0064 35.2885L25.5 37.9327V41.0288L18.3766 36.851V28.4535L20.992 30ZM20.992 24.7115V27.7933L18.375 26.2452V23.1635L20.992 21.6154L23.6218 23.1635L20.992 24.7115ZM27.3766 23.1635L29.9936 21.6154L32.6234 23.1635L29.9936 24.7115L27.3766 23.1635Z" fill="white"/>
<path d="M22.883 34.1923V31.0962L25.5 32.6442V35.726L22.883 34.1923ZM27.3766 39.0417L29.9936 40.5897L32.6234 39.0417V42.1234L29.9936 43.6715L27.3766 42.1234V39.0417ZM36.3766 23.1635L38.9936 21.6154L41.6234 23.1635V26.2452L38.9936 27.7933V24.7115L36.3766 23.1635ZM38.9936 35.2885L39.008 30L41.625 28.4519V36.8494L34.5016 41.0272V37.9311L38.9936 35.2885Z" fill="white"/>
<path d="M37.117 34.1923L34.5 35.726V32.6442L37.117 31.0962V34.1923Z" fill="white"/>
<path d="M37.117 25.8077L37.1314 28.9038L32.625 31.5481V36.8494L30.008 38.383L27.391 36.8494V31.5481L22.8846 28.9038V25.8077L25.5128 24.2596L29.992 26.9167L34.4984 24.2596L37.1282 25.8077H37.117ZM22.883 20.5208L29.9936 16.3285L37.117 20.5208L34.5 22.0689L29.9936 19.4119L25.5 22.0689L22.883 20.5208Z" fill="white"/>
</g>
<defs>
<clipPath id="clip0_1150_1308">
<rect width="40" height="40" fill="white" transform="translate(10 10)"/>
</clipPath>
</defs>
</svg>
