<svg width="19" height="18" viewBox="0 0 19 18" fill="none" xmlns="http://www.w3.org/2000/svg">
<path d="M17 1H2C0.89543 1 0 1.89543 0 3V16C0 17.1046 0.89543 18 2 18H17C18.1046 18 19 17.1046 19 16V3C19 1.89543 18.1046 1 17 1Z" fill="#D8DAFF"/>
<path d="M5.98001 0H5C4.72386 0 4.5 0.22386 4.5 0.5V2.5C4.5 2.77614 4.72386 3 5 3H5.98001C6.25615 3 6.48001 2.77614 6.48001 2.5V0.5C6.48001 0.22386 6.25615 0 5.98001 0Z" fill="#3E4064"/>
<path d="M6.24023 6.48047H4.74023C4.46409 6.48047 4.24023 6.70433 4.24023 6.98047V8.48047C4.24023 8.75657 4.46409 8.98047 4.74023 8.98047H6.24023C6.51638 8.98047 6.74023 8.75657 6.74023 8.48047V6.98047C6.74023 6.70433 6.51638 6.48047 6.24023 6.48047Z" fill="#1F53FF"/>
<path d="M10.25 6.48047H8.75C8.4739 6.48047 8.25 6.70433 8.25 6.98047V8.48047C8.25 8.75657 8.4739 8.98047 8.75 8.98047H10.25C10.5261 8.98047 10.75 8.75657 10.75 8.48047V6.98047C10.75 6.70433 10.5261 6.48047 10.25 6.48047Z" fill="#1F53FF"/>
<path d="M14.2598 6.48047H12.7598C12.4836 6.48047 12.2598 6.70433 12.2598 6.98047V8.48047C12.2598 8.75657 12.4836 8.98047 12.7598 8.98047H14.2598C14.5359 8.98047 14.7598 8.75657 14.7598 8.48047V6.98047C14.7598 6.70433 14.5359 6.48047 14.2598 6.48047Z" fill="#1F53FF"/>
<path d="M14 0H13C12.7239 0 12.5 0.22386 12.5 0.5V2.5C12.5 2.77614 12.7239 3 13 3H14C14.2761 3 14.5 2.77614 14.5 2.5V0.5C14.5 0.22386 14.2761 0 14 0Z" fill="#3E4064"/>
<path d="M6.24023 10.9805H4.74023C4.46409 10.9805 4.24023 11.2044 4.24023 11.4805V12.9805C4.24023 13.2566 4.46409 13.4805 4.74023 13.4805H6.24023C6.51638 13.4805 6.74023 13.2566 6.74023 12.9805V11.4805C6.74023 11.2044 6.51638 10.9805 6.24023 10.9805Z" fill="#1F53FF"/>
<path d="M10.25 10.9805H8.75C8.4739 10.9805 8.25 11.2044 8.25 11.4805V12.9805C8.25 13.2566 8.4739 13.4805 8.75 13.4805H10.25C10.5261 13.4805 10.75 13.2566 10.75 12.9805V11.4805C10.75 11.2044 10.5261 10.9805 10.25 10.9805Z" fill="#1F53FF"/>
<path d="M14.2598 10.9805H12.7598C12.4836 10.9805 12.2598 11.2044 12.2598 11.4805V12.9805C12.2598 13.2566 12.4836 13.4805 12.7598 13.4805H14.2598C14.5359 13.4805 14.7598 13.2566 14.7598 12.9805V11.4805C14.7598 11.2044 14.5359 10.9805 14.2598 10.9805Z" fill="#1F53FF"/>
</svg>
