<svg width="21" height="21" viewBox="0 0 21 21" fill="none" xmlns="http://www.w3.org/2000/svg">
<path fill-rule="evenodd" clip-rule="evenodd" d="M10.5001 18.1353C14.7863 18.1353 18.2609 14.6846 18.2609 10.428C18.2609 6.17135 14.7863 2.72068 10.5001 2.72068C6.21391 2.72068 2.73928 6.17135 2.73928 10.428C2.73928 14.6846 6.21391 18.1353 10.5001 18.1353ZM21 10.428C21 16.1869 16.299 20.8555 10.5001 20.8555C4.70114 20.8555 0.000167439 16.1869 0.000166935 10.428C0.000166432 4.66901 4.70114 0.000463003 10.5001 0.000462496C16.299 0.000461989 21 4.66901 21 10.428Z" fill="#FF2C27"/>
<path fill-rule="evenodd" clip-rule="evenodd" d="M10.4996 15.415C9.7432 15.415 9.13003 14.8061 9.13003 14.0549L9.13003 10.428C9.13003 9.6768 9.7432 9.06786 10.4996 9.06786C11.256 9.06786 11.8691 9.6768 11.8691 10.428L11.8691 14.0549C11.8691 14.8061 11.256 15.415 10.4996 15.415Z" fill="#FF2C27"/>
<path fill-rule="evenodd" clip-rule="evenodd" d="M11.8691 6.80102C11.8691 7.55219 11.256 8.16113 10.4996 8.16113L10.4893 8.16113C9.73293 8.16113 9.11976 7.55219 9.11976 6.80102C9.11976 6.04986 9.73293 5.44091 10.4893 5.44091L10.4996 5.44091C11.256 5.44091 11.8691 6.04986 11.8691 6.80102Z" fill="#FF2C27"/>
</svg>
