<svg width="25" height="26" viewBox="0 0 25 26" fill="none" xmlns="http://www.w3.org/2000/svg">
<path fill-rule="evenodd" clip-rule="evenodd" d="M25 13.1992C25 20.1028 19.4036 25.6992 12.5 25.6992C5.59644 25.6992 0 20.1028 0 13.1992C0 6.29566 5.59644 0.699219 12.5 0.699219C19.4036 0.699219 25 6.29566 25 13.1992ZM7.20312 12.2255H17.3726V9.59766H7.20312V12.2255ZM7.20312 17.6059V15.0067C7.92497 14.2398 8.83789 13.8456 9.83573 13.835C10.7013 13.8403 11.5012 14.1405 12.3021 14.441C13.1121 14.745 13.923 15.0493 14.8037 15.0493C15.7909 15.0493 16.672 14.6552 17.3726 13.8776V16.4768C16.6508 17.2437 15.7379 17.6485 14.74 17.6485C13.866 17.6485 13.0561 17.3451 12.2461 17.0416C11.4426 16.7406 10.6389 16.4395 9.77204 16.4341C8.78481 16.4448 7.90374 16.8389 7.20312 17.6059Z" fill="url(#paint0_linear_753_12592)"/>
<defs>
<linearGradient id="paint0_linear_753_12592" x1="1.38889" y1="0.699219" x2="21.0185" y2="24.4029" gradientUnits="userSpaceOnUse">
<stop stop-color="#1F53FF"/>
<stop offset="1" stop-color="#9C1FFF"/>
</linearGradient>
</defs>
</svg>
