<svg width="22" height="21" viewBox="0 0 22 21" fill="none" xmlns="http://www.w3.org/2000/svg">
<path fill-rule="evenodd" clip-rule="evenodd" d="M11.0001 18.1348C15.2863 18.1348 18.7609 14.6841 18.7609 10.4275C18.7609 6.17086 15.2863 2.72019 11.0001 2.72019C6.71391 2.72019 3.23928 6.17086 3.23928 10.4275C3.23928 14.6841 6.71391 18.1348 11.0001 18.1348ZM21.5 10.4275C21.5 16.1864 16.799 20.855 11.0001 20.855C5.20114 20.855 0.500167 16.1864 0.500167 10.4275C0.500166 4.66853 5.20114 -2.5278e-05 11.0001 -2.57849e-05C16.799 -2.62919e-05 21.5 4.66852 21.5 10.4275Z" fill="#FF2C27"/>
<path fill-rule="evenodd" clip-rule="evenodd" d="M10.9996 15.4146C10.2432 15.4146 9.63003 14.8056 9.63003 14.0544L9.63003 10.4275C9.63003 9.67632 10.2432 9.06737 10.9996 9.06737C11.756 9.06737 12.3691 9.67631 12.3691 10.4275L12.3691 14.0544C12.3691 14.8056 11.756 15.4146 10.9996 15.4146Z" fill="#FF2C27"/>
<path fill-rule="evenodd" clip-rule="evenodd" d="M12.3691 6.80054C12.3691 7.5517 11.756 8.16064 10.9996 8.16064L10.9893 8.16064C10.2329 8.16064 9.61976 7.5517 9.61976 6.80054C9.61976 6.04937 10.2329 5.44043 10.9893 5.44043L10.9996 5.44043C11.756 5.44043 12.3691 6.04937 12.3691 6.80054Z" fill="#FF2C27"/>
</svg>
