<svg width="445" height="57" viewBox="0 0 445 57" fill="none" xmlns="http://www.w3.org/2000/svg">
<rect x="1" y="1.35498" width="443" height="55" rx="9.5" fill="white" stroke="url(#paint0_linear_1800_15180)"/>
<path d="M183.512 21.6475H186.461V30.8271C186.461 33.9229 184.108 35.9932 180.602 35.9834C177.086 35.9932 174.762 33.9229 174.762 30.8271V21.6475H177.692V30.5928C177.701 32.2236 178.854 33.3955 180.602 33.4053C182.369 33.3955 183.522 32.2236 183.512 30.5928V21.6475ZM191.276 29.6553V35.7881H188.385V25.1826H191.139V27.0381H191.256C191.735 25.8174 192.868 25.0459 194.44 25.0459C196.657 25.0459 198.102 26.5596 198.092 29.0303V35.7881H195.221V29.5381C195.211 28.2295 194.508 27.4482 193.307 27.4482C192.106 27.4482 191.276 28.2588 191.276 29.6553ZM205.993 28.3271C205.866 27.585 205.222 27.1064 204.255 27.0967C203.317 27.1064 202.604 27.5459 202.614 28.1904C202.604 28.6689 202.976 29.04 203.981 29.2451L205.876 29.6357C207.936 30.0654 208.933 30.9834 208.942 32.5068C208.933 34.5967 207.058 35.9932 204.235 36.0029C201.374 35.9932 199.694 34.7139 199.45 32.6436H202.36C202.497 33.4736 203.171 33.9033 204.235 33.9131C205.29 33.9033 205.993 33.4834 205.993 32.7998C205.993 32.2529 205.544 31.9111 204.548 31.7061L202.79 31.3545C200.769 30.9541 199.733 29.9189 199.743 28.3467C199.733 26.3154 201.481 25.0459 204.216 25.0459C206.892 25.0459 208.552 26.3154 208.708 28.3271H205.993ZM215.906 25.1826V27.3506H213.913V32.5264C213.904 33.376 214.324 33.5811 214.91 33.6006C215.202 33.6006 215.71 33.5713 216.062 33.542V35.8271C215.749 35.876 215.232 35.9346 214.519 35.9248C212.429 35.9346 211.003 34.9971 211.023 32.9365V27.3506H209.558V25.1826H211.023V22.6436H213.913V25.1826H215.906ZM216.814 32.8193C216.824 30.4561 218.719 29.6846 220.76 29.5576C221.521 29.5088 222.947 29.4404 223.396 29.4209V28.5615C223.386 27.6729 222.781 27.165 221.697 27.1553C220.711 27.165 220.095 27.6045 219.939 28.3271H217.185C217.361 26.4912 218.963 25.0459 221.775 25.0459C224.09 25.0459 226.277 26.0811 226.267 28.6396V35.7881H223.533V34.3232H223.455C222.937 35.2998 221.922 35.9932 220.349 35.9834C218.318 35.9932 216.824 34.9189 216.814 32.8193ZM219.588 32.7412C219.588 33.5518 220.242 33.9814 221.17 33.9912C222.488 33.9814 223.406 33.1221 223.396 31.999V31.2275C222.957 31.2471 221.717 31.3154 221.228 31.3545C220.222 31.4424 219.588 31.9209 219.588 32.7412ZM228.074 35.7881V21.6475H230.965V29.2451H231.121L234.559 25.1826H237.879L233.924 29.7725L238.094 35.7881H234.695L231.776 31.4717L230.965 32.3896V35.7881H228.074ZM238.827 35.7881V25.1826H241.717V35.7881H238.827ZM238.69 22.3311C238.69 21.5107 239.403 20.8564 240.272 20.8467C241.131 20.8564 241.844 21.5107 241.835 22.3311C241.844 23.1318 241.131 23.7959 240.272 23.7959C239.403 23.7959 238.69 23.1318 238.69 22.3311ZM246.454 29.6553V35.7881H243.563V25.1826H246.317V27.0381H246.435C246.913 25.8174 248.046 25.0459 249.618 25.0459C251.835 25.0459 253.28 26.5596 253.27 29.0303V35.7881H250.399V29.5381C250.39 28.2295 249.686 27.4482 248.485 27.4482C247.284 27.4482 246.454 28.2588 246.454 29.6553ZM259.882 39.9873C256.952 39.9873 255.146 38.6689 254.98 36.667H257.831C257.988 37.5166 258.788 37.8975 259.941 37.8975C261.279 37.8975 262.177 37.3213 262.187 35.8467V33.9131H262.05C261.669 34.7725 260.732 35.6416 259.023 35.6318C256.63 35.6416 254.706 33.9521 254.706 30.417C254.706 26.833 256.679 25.0459 259.023 25.0459C260.8 25.0459 261.66 26.1006 262.05 26.96H262.167V25.1826H265.038V35.9053C265.029 38.6104 262.9 39.9873 259.882 39.9873ZM257.675 30.4561C257.665 32.292 258.456 33.4541 259.921 33.4639C261.367 33.4541 262.187 32.3408 262.187 30.4561C262.187 28.5713 261.376 27.3506 259.921 27.3506C258.447 27.3506 257.665 28.6299 257.675 30.4561Z" fill="url(#paint1_linear_1800_15180)"/>
<defs>
<linearGradient id="paint0_linear_1800_15180" x1="25.1667" y1="0.85498" x2="34.4149" y2="89.3983" gradientUnits="userSpaceOnUse">
<stop stop-color="#1F53FF"/>
<stop offset="1" stop-color="#9C1FFF"/>
</linearGradient>
<linearGradient id="paint1_linear_1800_15180" x1="26.6729" y1="15.7881" x2="28.7475" y2="57.4558" gradientUnits="userSpaceOnUse">
<stop stop-color="#1F53FF"/>
<stop offset="1" stop-color="#9C1FFF"/>
</linearGradient>
</defs>
</svg>
