<svg width="30" height="31" viewBox="0 0 30 31" fill="none" xmlns="http://www.w3.org/2000/svg">
<path d="M21.2627 8.35547H8.7627C6.00127 8.35547 3.7627 10.594 3.7627 13.3555V22.1055C3.7627 24.8668 6.00127 27.1055 8.7627 27.1055H21.2627C24.0241 27.1055 26.2627 24.8668 26.2627 22.1055V13.3555C26.2627 10.594 24.0241 8.35547 21.2627 8.35547Z" fill="#737A83"/>
<path d="M15.0127 3.35547C15.4271 3.35547 15.8246 3.52009 16.1176 3.81312C16.4106 4.10614 16.5752 4.50357 16.5752 4.91797V8.35547H13.4502V4.91797C13.4502 4.50357 13.6148 4.10614 13.9078 3.81312C14.2008 3.52009 14.5982 3.35547 15.0127 3.35547Z" fill="#C7CED5"/>
<path d="M12.5127 15.8555C12.5127 14.82 11.6732 13.9805 10.6377 13.9805C9.60216 13.9805 8.7627 14.82 8.7627 15.8555V18.3555C8.7627 19.391 9.60216 20.2305 10.6377 20.2305C11.6732 20.2305 12.5127 19.391 12.5127 18.3555V15.8555Z" fill="#B3EAED"/>
<path d="M21.2627 15.8555C21.2627 14.82 20.4232 13.9805 19.3877 13.9805C18.3521 13.9805 17.5127 14.82 17.5127 15.8555V18.3555C17.5127 19.391 18.3521 20.2305 19.3877 20.2305C20.4232 20.2305 21.2627 19.391 21.2627 18.3555V15.8555Z" fill="#B3EAED"/>
<path d="M3.7627 13.3555V20.8555C3.09965 20.8555 2.4638 20.5921 1.99496 20.1232C1.52612 19.6543 1.2627 19.0185 1.2627 18.3555V15.8555C1.2627 15.1925 1.52612 14.5566 1.99496 14.0877C2.4638 13.6188 3.09965 13.3555 3.7627 13.3555Z" fill="#C7CED5"/>
<path d="M26.2627 13.3555C26.9257 13.3555 27.5616 13.6188 28.0304 14.0877C28.4993 14.5566 28.7627 15.1925 28.7627 15.8555V18.3555C28.7627 19.0185 28.4993 19.6543 28.0304 20.1232C27.5616 20.5921 26.9257 20.8555 26.2627 20.8555V13.3555Z" fill="#C7CED5"/>
</svg>
