<svg width="23" height="52" viewBox="0 0 23 52" fill="none" xmlns="http://www.w3.org/2000/svg">
<path d="M19.151 1C12.4388 6.46336 7.75305 14.5067 8.75627 23.4521C9.1477 26.9423 10.7604 35.0441 16.1044 33.4177C18.8678 32.5767 22.7249 30.5678 20.9853 27.0886C19.7336 24.5852 17.5953 24.1708 15.0317 24.1708C8.83623 24.1708 6.91536 32.1649 7.41537 37.065C7.72248 40.0747 8.64367 43.0571 9.49645 45.9471C9.87126 47.2173 10.3033 48.552 11.0412 49.6587" stroke="white" stroke-width="2" stroke-linecap="round" stroke-dasharray="4 4"/>
<path d="M1 44.4459C4.07819 45.9709 7.40066 47.2574 10.2254 49.2303C10.6996 49.5615 11.2197 49.8149 11.62 50.2386C11.6759 50.2979 12.0697 50.9621 11.9632 50.5819C11.7838 49.9409 11.9639 49.4143 12.0491 48.7583C12.3984 46.068 13.6832 43.8977 14.5592 41.3994C15.0154 40.0984 15.6991 39.003 16.4472 37.8809" stroke="white" stroke-width="2" stroke-linecap="round" stroke-dasharray="4 4"/>
</svg>
