<svg width="21" height="20" viewBox="0 0 21 20" fill="none" xmlns="http://www.w3.org/2000/svg">
<path d="M12.9945 10H20.5045C20.5045 7.34783 19.4509 4.80431 17.5756 2.92895C15.7002 1.05359 13.1567 0 10.5045 0V7.5C10.8323 7.49999 11.1569 7.56473 11.4597 7.69049C11.7625 7.81625 12.0374 8.00053 12.2688 8.23283C12.5001 8.46513 12.6833 8.74083 12.8078 9.04403C12.9324 9.34733 12.9958 9.67213 12.9945 10Z" fill="#5096FF"/>
<path d="M10.4947 12.5C9.83172 12.5 9.19582 12.2366 8.72702 11.7677C8.25815 11.2989 7.99475 10.663 7.99475 10C7.99475 9.33693 8.25815 8.70103 8.72702 8.23223C9.19582 7.76339 9.83172 7.5 10.4947 7.5V0C7.84259 0 5.29904 1.05359 3.42368 2.92895C1.54832 4.80431 0.494751 7.34783 0.494751 10C0.494751 12.6521 1.54832 15.1956 3.42368 17.071C5.29904 18.9464 7.84259 20 10.4947 20C13.1467 19.9994 15.6898 18.9455 17.5647 17.07L12.2547 11.76C12.0258 11.9948 11.7521 12.1813 11.4498 12.3084C11.1475 12.4356 10.8227 12.5007 10.4947 12.5Z" fill="#CBDFFF"/>
<path d="M12.9952 10C12.9955 10.327 12.9312 10.6508 12.8059 10.9528C12.6806 11.2549 12.4968 11.5292 12.2651 11.76L17.5751 17.07C19.4506 15.195 20.5046 12.6519 20.5051 10H12.9952Z" fill="#5585CD"/>
</svg>
