<svg width="21" height="20" viewBox="0 0 21 20" fill="none" xmlns="http://www.w3.org/2000/svg">
<path d="M12.4998 10H20.0098C20.0098 7.34783 18.9562 4.80431 17.0809 2.92895C15.2055 1.05359 12.662 0 10.0098 0V7.5C10.3376 7.49999 10.6622 7.56473 10.965 7.69049C11.2678 7.81625 11.5427 8.00053 11.7741 8.23283C12.0054 8.46513 12.1886 8.74083 12.3131 9.04403C12.4377 9.34733 12.5011 9.67213 12.4998 10Z" fill="#5096FF"/>
<path d="M9.99997 12.5C9.33697 12.5 8.70107 12.2366 8.23227 11.7677C7.7634 11.2989 7.5 10.663 7.5 10C7.5 9.33693 7.7634 8.70103 8.23227 8.23223C8.70107 7.76339 9.33697 7.5 9.99997 7.5V0C7.34784 0 4.80429 1.05359 2.92893 2.92895C1.05357 4.80431 0 7.34783 0 10C0 12.6521 1.05357 15.1956 2.92893 17.071C4.80429 18.9464 7.34784 20 9.99997 20C12.652 19.9994 15.1951 18.9455 17.07 17.07L11.76 11.76C11.5311 11.9948 11.2574 12.1813 10.9551 12.3084C10.6528 12.4356 10.328 12.5007 9.99997 12.5Z" fill="#CBDFFF"/>
<path d="M12.5005 10C12.5008 10.327 12.4365 10.6508 12.3112 10.9528C12.1859 11.2549 12.0021 11.5292 11.7704 11.76L17.0804 17.07C18.9559 15.195 20.0099 12.6519 20.0104 10H12.5005Z" fill="#5585CD"/>
</svg>
