<svg width="111" height="111" viewBox="0 0 111 111" fill="none" xmlns="http://www.w3.org/2000/svg">
<g filter="url(#filter0_d_620_10420)">
<path fill-rule="evenodd" clip-rule="evenodd" d="M46.4093 11.0142C55.0858 9.05387 64.1636 9.95076 72.2888 13.5711L81.383 27.5892L55.4982 53.4998L45.1605 43.1621C43.2079 41.2095 40.0421 41.2095 38.0895 43.1621C36.1368 45.1147 36.1368 48.2805 38.0895 50.2332L51.9645 64.1082C52.9025 65.0461 54.1747 65.573 55.5013 65.5726C56.8278 65.5723 58.0998 65.0448 59.0373 64.1064L86.9482 36.1676L96.75 51.2765C96.7443 60.1707 93.864 68.8249 88.5385 75.9486C83.2124 83.0731 75.7261 88.2851 67.1959 90.8072C58.6657 93.3293 49.5487 93.0265 41.2047 89.9438C32.8607 86.8611 25.7367 81.1638 20.8952 73.7015C16.0537 66.2393 13.7541 57.4119 14.3394 48.5359C14.9247 39.6599 18.3635 31.211 24.1429 24.449C29.9223 17.6871 37.7327 12.9746 46.4093 11.0142ZM86.9489 36.1669L96.75 51.2736L96.75 47.0215C96.75 44.2601 98.9886 42.0215 101.75 42.0215C104.511 42.0215 106.75 44.2601 106.75 47.0215V51.2793C106.744 62.331 103.165 73.0845 96.5478 81.9362C89.9306 90.7878 80.6293 97.2633 70.0312 100.397C59.4331 103.53 48.106 103.154 37.7392 99.3241C27.3724 95.4941 18.5214 88.4156 12.5062 79.1443C6.49099 69.873 3.63393 58.9057 4.36109 47.8779C5.08826 36.8502 9.36069 26.353 16.5412 17.9518C23.7217 9.55066 33.4255 3.69567 44.2055 1.26008C54.9854 -1.1755 66.2639 -0.0611887 76.3588 4.43684C78.8811 5.56074 80.0148 8.51661 78.8909 11.039C77.767 13.5613 74.8111 14.695 72.2888 13.5711L81.3834 27.5888L98.2127 10.7426C100.164 8.789 103.33 8.78742 105.284 10.7391C107.237 12.6907 107.239 15.8565 105.287 17.8101L86.9489 36.1669Z" fill="#1F53FF"/>
</g>
<defs>
<filter id="filter0_d_620_10420" x="0.25" y="0" width="110.5" height="110.5" filterUnits="userSpaceOnUse" color-interpolation-filters="sRGB">
<feFlood flood-opacity="0" result="BackgroundImageFix"/>
<feColorMatrix in="SourceAlpha" type="matrix" values="0 0 0 0 0 0 0 0 0 0 0 0 0 0 0 0 0 0 127 0" result="hardAlpha"/>
<feOffset dy="4"/>
<feGaussianBlur stdDeviation="2"/>
<feComposite in2="hardAlpha" operator="out"/>
<feColorMatrix type="matrix" values="0 0 0 0 0 0 0 0 0 0 0 0 0 0 0 0 0 0 0.25 0"/>
<feBlend mode="normal" in2="BackgroundImageFix" result="effect1_dropShadow_620_10420"/>
<feBlend mode="normal" in="SourceGraphic" in2="effect1_dropShadow_620_10420" result="shape"/>
</filter>
</defs>
</svg>
