<svg width="18" height="22" viewBox="0 0 18 22" fill="none" xmlns="http://www.w3.org/2000/svg">
<path fill-rule="evenodd" clip-rule="evenodd" d="M12.7206 17.4839V2.5C12.7206 2.22386 12.9444 2 13.2206 2H13.7794C14.0556 2 14.2794 2.22386 14.2794 2.5V17.4839H16.7959C17.241 17.4839 17.4642 18.0215 17.1501 18.3368L13.8542 21.6445C13.6588 21.8407 13.3412 21.8407 13.1458 21.6445L9.84987 18.3368C9.53576 18.0216 9.75904 17.4839 10.2041 17.4839H12.7206Z" fill="white"/>
<path fill-rule="evenodd" clip-rule="evenodd" d="M5.27942 4.74194L5.27942 20.5C5.27942 20.7761 5.05556 21 4.77942 21L4.22058 21C3.94443 21 3.72058 20.7761 3.72058 20.5L3.72058 4.74194L1.16379 4.74194C0.724623 4.74194 0.498801 4.21632 0.801108 3.89775L4.13732 0.382183C4.33448 0.174423 4.66553 0.174423 4.86269 0.382183L8.19889 3.89775C8.5012 4.21632 8.27538 4.74194 7.83621 4.74194L5.27942 4.74194Z" fill="white"/>
</svg>
