<svg width="14" height="13" viewBox="0 0 14 13" fill="none" xmlns="http://www.w3.org/2000/svg">
<path fill-rule="evenodd" clip-rule="evenodd" d="M6.8 1.6002C4.0938 1.6002 1.9 3.794 1.9 6.50019C1.9 9.20639 4.0938 11.4002 6.8 11.4002C9.50619 11.4002 11.7 9.20639 11.7 6.50019C11.7 3.794 9.50619 1.6002 6.8 1.6002ZM0.5 6.50019C0.5 3.0208 3.32061 0.200195 6.8 0.200195C10.2794 0.200195 13.1 3.0208 13.1 6.50019C13.1 9.97959 10.2794 12.8002 6.8 12.8002C3.32061 12.8002 0.5 9.97959 0.5 6.50019ZM6.8 4.05019C6.42569 4.05019 6.1 4.36303 6.1 4.77664C6.1 5.16324 5.7866 5.47664 5.4 5.47664C5.0134 5.47664 4.7 5.16324 4.7 4.77664C4.7 3.61464 5.62791 2.65019 6.8 2.65019C7.97209 2.65019 8.9 3.61464 8.9 4.77664C8.9 5.69472 8.32075 6.48949 7.49949 6.78269C7.49943 6.89677 7.49939 7.02227 7.49939 7.15404C7.49939 7.54064 7.18599 7.85404 6.79939 7.85404C6.41279 7.85404 6.09939 7.54064 6.09939 7.15404C6.09939 6.89118 6.09954 6.65323 6.0997 6.48099L6.1 6.2024C6.10055 5.81619 6.41379 5.50308 6.8 5.50308C7.17431 5.50308 7.5 5.19024 7.5 4.77664C7.5 4.36303 7.17431 4.05019 6.8 4.05019ZM6.79939 8.60019C7.18599 8.60019 7.49939 8.9136 7.49939 9.30019V9.3248C7.49939 9.7114 7.18599 10.0248 6.79939 10.0248C6.41279 10.0248 6.09939 9.7114 6.09939 9.3248V9.30019C6.09939 8.9136 6.41279 8.60019 6.79939 8.60019Z" fill="#ACB0FD"/>
</svg>
