<svg width="15" height="14" viewBox="0 0 15 14" fill="none" xmlns="http://www.w3.org/2000/svg">
<path d="M6.94587 10.0767H8.14171V6.41628H6.94587V10.0767ZM7.50004 5.55586C7.70421 5.55586 7.87192 5.49023 8.00317 5.35898C8.13442 5.22773 8.20004 5.06489 8.20004 4.87044C8.20004 4.65655 8.13199 4.48398 7.99587 4.35273C7.85976 4.22148 7.69448 4.15586 7.50004 4.15586C7.29587 4.15586 7.12817 4.22148 6.99692 4.35273C6.86567 4.48398 6.80004 4.65169 6.80004 4.85586C6.80004 5.06003 6.8681 5.22773 7.00421 5.35898C7.14032 5.49023 7.3056 5.55586 7.50004 5.55586ZM7.50004 13.1975C6.64448 13.1975 5.83997 13.0371 5.0865 12.7163C4.33303 12.3954 3.67435 11.9531 3.11046 11.3892C2.54657 10.8253 2.10421 10.1691 1.78337 9.42044C1.46254 8.67183 1.30212 7.86489 1.30212 6.99961C1.30212 6.13433 1.46254 5.32496 1.78337 4.57148C2.10421 3.81801 2.54657 3.16176 3.11046 2.60273C3.67435 2.04371 4.3306 1.60135 5.07921 1.27565C5.82782 0.949957 6.63476 0.787109 7.50004 0.787109C8.36532 0.787109 9.17469 0.949957 9.92817 1.27565C10.6816 1.60135 11.3379 2.04371 11.8969 2.60273C12.4559 3.16176 12.8983 3.81801 13.224 4.57148C13.5497 5.32496 13.7125 6.13433 13.7125 6.99961C13.7125 7.86489 13.5497 8.67183 13.224 9.42044C12.8983 10.1691 12.4559 10.8229 11.8969 11.3819C11.3379 11.9409 10.6816 12.3833 9.92817 12.709C9.17469 13.0347 8.36532 13.1975 7.50004 13.1975ZM7.51462 11.8267C8.84657 11.8267 9.98164 11.3576 10.9198 10.4194C11.858 9.48121 12.3271 8.33641 12.3271 6.98503C12.3271 5.65308 11.858 4.51801 10.9198 3.57982C9.98164 2.64162 8.84171 2.17253 7.50004 2.17253C6.15837 2.17253 5.01844 2.64162 4.08025 3.57982C3.14205 4.51801 2.67296 5.65794 2.67296 6.99961C2.67296 8.34128 3.14205 9.48121 4.08025 10.4194C5.01844 11.3576 6.16323 11.8267 7.51462 11.8267Z" fill="#1F53FF"/>
</svg>
