<svg width="13" height="14" viewBox="0 0 13 14" fill="none" xmlns="http://www.w3.org/2000/svg">
<path fill-rule="evenodd" clip-rule="evenodd" d="M6.50019 2.1002C3.794 2.1002 1.6002 4.294 1.6002 7.00019C1.6002 9.70639 3.794 11.9002 6.50019 11.9002C9.20639 11.9002 11.4002 9.70639 11.4002 7.00019C11.4002 4.294 9.20639 2.1002 6.50019 2.1002ZM0.200195 7.00019C0.200195 3.5208 3.0208 0.700195 6.50019 0.700195C9.97959 0.700195 12.8002 3.5208 12.8002 7.00019C12.8002 10.4796 9.97959 13.3002 6.50019 13.3002C3.0208 13.3002 0.200195 10.4796 0.200195 7.00019ZM6.50019 4.55019C6.12589 4.55019 5.80019 4.86303 5.80019 5.27664C5.80019 5.66324 5.48679 5.97664 5.10019 5.97664C4.7136 5.97664 4.40019 5.66324 4.40019 5.27664C4.40019 4.11464 5.32811 3.15019 6.50019 3.15019C7.67228 3.15019 8.60019 4.11464 8.60019 5.27664C8.60019 6.19472 8.02095 6.98949 7.19968 7.28269C7.19962 7.39677 7.19959 7.52227 7.19959 7.65404C7.19959 8.04064 6.88619 8.35404 6.49959 8.35404C6.11299 8.35404 5.79959 8.04064 5.79959 7.65404C5.79959 7.39118 5.79974 7.15323 5.79989 6.98099L5.80019 6.7024C5.80075 6.31619 6.11398 6.00308 6.50019 6.00308C6.8745 6.00308 7.20019 5.69024 7.20019 5.27664C7.20019 4.86303 6.8745 4.55019 6.50019 4.55019ZM6.49959 9.10019C6.88619 9.10019 7.19959 9.4136 7.19959 9.80019V9.8248C7.19959 10.2114 6.88619 10.5248 6.49959 10.5248C6.11299 10.5248 5.79959 10.2114 5.79959 9.8248V9.80019C5.79959 9.4136 6.11299 9.10019 6.49959 9.10019Z" fill="#1F53FF"/>
</svg>
