<svg width="13" height="13" viewBox="0 0 13 13" fill="none" xmlns="http://www.w3.org/2000/svg">
<path fill-rule="evenodd" clip-rule="evenodd" d="M6.50019 1.4C3.794 1.4 1.6002 3.5938 1.6002 6.3C1.6002 9.00619 3.794 11.2 6.50019 11.2C9.20639 11.2 11.4002 9.00619 11.4002 6.3C11.4002 3.5938 9.20639 1.4 6.50019 1.4ZM0.200195 6.3C0.200195 2.82061 3.0208 0 6.50019 0C9.97959 0 12.8002 2.82061 12.8002 6.3C12.8002 9.77939 9.97959 12.6 6.50019 12.6C3.0208 12.6 0.200195 9.77939 0.200195 6.3ZM6.50019 3.85C6.12589 3.85 5.80019 4.16283 5.80019 4.57644C5.80019 4.96304 5.48679 5.27644 5.10019 5.27644C4.7136 5.27644 4.40019 4.96304 4.40019 4.57644C4.40019 3.41444 5.32811 2.45 6.50019 2.45C7.67228 2.45 8.60019 3.41444 8.60019 4.57644C8.60019 5.49453 8.02095 6.28929 7.19968 6.58249C7.19962 6.69657 7.19959 6.82208 7.19959 6.95384C7.19959 7.34044 6.88619 7.65384 6.49959 7.65384C6.11299 7.65384 5.79959 7.34044 5.79959 6.95384C5.79959 6.69098 5.79974 6.45303 5.79989 6.28079L5.80019 6.0022C5.80075 5.61599 6.11398 5.30288 6.50019 5.30288C6.8745 5.30288 7.20019 4.99005 7.20019 4.57644C7.20019 4.16283 6.8745 3.85 6.50019 3.85ZM6.49959 8.4C6.88619 8.4 7.19959 8.7134 7.19959 9.1V9.12461C7.19959 9.51121 6.88619 9.82461 6.49959 9.82461C6.11299 9.82461 5.79959 9.51121 5.79959 9.12461V9.1C5.79959 8.7134 6.11299 8.4 6.49959 8.4Z" fill="#3E4064"/>
</svg>
