<svg width="17" height="16" viewBox="0 0 17 16" fill="none" xmlns="http://www.w3.org/2000/svg">
<path fill-rule="evenodd" clip-rule="evenodd" d="M2.34124 1.98057C2.61349 1.64179 3.03847 1.35986 3.56432 1.35986H12.8088C13.177 1.35986 13.4754 1.65834 13.4754 2.02653C13.4754 2.39472 13.177 2.6932 12.8088 2.6932H3.56432C3.54034 2.6932 3.46814 2.70681 3.38054 2.81581C3.29332 2.92434 3.23623 3.078 3.23611 3.22709C3.23587 3.51315 3.31781 3.79009 3.43091 3.9771C3.50951 4.10709 3.56669 4.14267 3.58334 4.15097H13.9465C14.0619 4.15097 14.1547 4.1478 14.254 4.1444C14.3252 4.14197 14.3997 4.13942 14.4883 4.13785C14.6636 4.13472 14.8853 4.13626 15.0973 4.1835C15.322 4.2336 15.5907 4.34733 15.7887 4.60911C15.98 4.86209 16.0354 5.16177 16.0354 5.43986V12.2665C16.0354 13.5773 14.9729 14.6399 13.6621 14.6399H4.27543C2.96468 14.6399 1.9021 13.5773 1.9021 12.2665V3.62653C1.9021 3.58128 1.90661 3.53708 1.9152 3.49436C1.9069 3.40516 1.9027 3.31549 1.90277 3.22597C1.90316 2.76615 2.0686 2.31981 2.34124 1.98057ZM3.23543 5.4411V12.2665C3.23543 12.8409 3.70106 13.3065 4.27543 13.3065H13.6621C14.2365 13.3065 14.7021 12.8409 14.7021 12.2665V5.47291C14.6549 5.47042 14.5932 5.46952 14.512 5.47097C14.4672 5.47177 14.4083 5.47364 14.3424 5.47574C14.22 5.47963 14.0732 5.48431 13.9465 5.48431H3.56432C3.44795 5.48431 3.33831 5.46883 3.23543 5.4411ZM14.6959 5.36015C14.6959 5.36014 14.696 5.36054 14.6962 5.36136L14.6959 5.36015ZM12.438 8.37064C12.6983 8.63098 12.6983 9.05309 12.438 9.31345L12.4269 9.32458C12.1665 9.58494 11.7444 9.58496 11.484 9.32462C11.2237 9.06428 11.2237 8.64217 11.484 8.38181L11.4951 8.37067C11.7555 8.11031 12.1776 8.1103 12.438 8.37064Z" fill="#1F53FF"/>
</svg>
