<svg width="55" height="54" viewBox="0 0 55 54" fill="none" xmlns="http://www.w3.org/2000/svg">
<path d="M44.1945 25.6917C47.0521 23.8519 48.7416 21.5914 49.111 19.0934C49.1545 18.7751 49.1762 18.4406 49.1762 18.1061V11.7344C49.1816 5.15236 39.6256 0 27.4294 0C15.2331 0 5.6771 5.15236 5.6771 11.7344V17.0163C2.01008 19.1528 0 21.9906 0 25.0335V31.4051C0 31.7558 0.0271632 32.0903 0.0760569 32.3978C0.673647 36.4766 4.9274 39.9672 11.4955 41.807V42.2656C11.4955 42.5947 11.5172 42.9238 11.5661 43.2583C12.4733 49.3818 21.7957 54 33.2477 54C44.6997 54 54.0276 49.3818 54.9239 43.2637C54.9728 42.9507 55 42.6109 55 42.2656V35.8939C55 31.5724 50.8984 27.731 44.1945 25.6917ZM33.2477 50.7629C23.7189 50.7629 15.4395 47.1859 14.7876 42.7727C14.7768 42.7026 14.7659 42.627 14.7605 42.5461C14.9452 42.5785 15.1299 42.6109 15.3092 42.6378C15.3363 42.6594 15.3635 42.681 15.3907 42.7026L15.5102 42.7943C15.6949 42.9346 15.8796 43.0694 16.0371 43.1719L16.1241 43.2367C16.2925 43.35 16.4609 43.4633 16.651 43.582L16.9009 43.7384C17.0911 43.8517 17.2921 43.9704 17.4768 44.0729C17.7158 44.2078 17.9603 44.3373 18.2156 44.4668C22.2521 46.5061 27.5869 47.6283 33.2369 47.6283C38.8868 47.6283 44.2162 46.5061 48.2527 44.4668C48.47 44.3589 48.6764 44.2456 48.872 44.1377C49.111 44.0082 49.3392 43.8787 49.5293 43.7546C49.6706 43.6737 49.8064 43.5874 49.9259 43.5118C50.3442 43.2475 50.7137 42.9885 51.0722 42.7134L51.1374 42.6648C51.2569 42.5731 51.371 42.4814 51.4797 42.3897C51.5666 42.3195 51.6481 42.2494 51.735 42.1738V42.2656C51.735 42.449 51.7241 42.6162 51.697 42.7835C51.0505 47.1805 42.7711 50.7629 33.2423 50.7629H33.2477ZM27.4294 3.23709C37.2787 3.23709 45.9221 7.20791 45.9221 11.7344C45.9221 12.5006 45.6667 13.2721 45.1669 14.0328C44.352 15.2683 42.9015 16.439 40.9729 17.4155C40.3428 17.7284 39.6963 18.0198 39.0281 18.2734C38.4685 18.4946 37.8492 18.705 37.181 18.9046C34.2582 19.7732 30.8845 20.2372 27.4239 20.2372C22.2792 20.2372 17.4659 19.2391 13.8858 17.4263C13.2719 17.1134 12.7124 16.7843 12.218 16.4552C11.6747 16.0937 11.1804 15.7053 10.7566 15.2952C10.3274 14.8852 9.96345 14.4644 9.68639 14.049C9.18659 13.2828 8.93125 12.5113 8.93125 11.7452C8.93125 7.2187 17.5746 3.24788 27.4239 3.24788L27.4294 3.23709ZM14.6029 33.6711L14.679 32.8618C14.5106 32.8295 14.3367 32.7971 14.1846 32.7593L14.0271 32.7269C13.9293 32.7054 13.8261 32.6838 13.6902 32.646L13.0709 32.5004C12.8536 32.4464 12.6363 32.3871 12.4027 32.3223C12.1854 32.2684 11.979 32.2036 11.7399 32.1335C11.6313 32.1065 11.5281 32.0687 11.4303 32.0364L11.1097 31.9285C11.0283 31.9015 10.9468 31.8745 10.8761 31.8475C10.7077 31.7936 10.5393 31.7288 10.3763 31.6695C10.0938 31.567 9.81677 31.4537 9.54514 31.3458C9.3224 31.2541 9.1051 31.157 8.87693 31.0491C8.65419 30.9466 8.42602 30.8386 8.20328 30.7253C6.27469 29.7542 4.82418 28.5889 4.00928 27.348C3.50948 26.5819 3.25415 25.8104 3.25415 25.0443C3.25415 23.5228 4.27548 21.9798 6.14974 20.6256C7.5568 24.2889 12.017 27.3102 18.384 28.8263C19.3673 29.0636 20.3561 29.2525 21.3231 29.3981H21.3666C23.3006 29.7003 25.3378 29.8513 27.4239 29.8513C31.5202 29.8513 35.4479 29.2687 38.8433 28.1681C37.9959 29.1014 36.7844 29.9754 35.2904 30.7307C31.7103 32.5435 26.9024 33.547 21.7468 33.547C21.4861 33.547 21.2307 33.547 20.9265 33.5362C20.8179 33.5362 20.7146 33.5362 20.606 33.5362H20.5299C20.4919 33.5362 20.4539 33.5308 20.4376 33.5308C20.2529 33.5308 20.0736 33.5146 19.8889 33.5038H19.802C19.7585 33.5038 19.7205 33.4985 19.715 33.4985L18.4492 33.4121C18.2265 33.3906 18.0092 33.3744 17.781 33.3474C17.5637 33.3258 17.341 33.2988 17.1291 33.2719C16.9118 33.2449 16.6945 33.2125 16.4663 33.1801C16.1458 33.137 15.8307 33.0884 15.5265 33.0345L14.8583 32.9158C14.8202 32.905 14.7768 32.8996 14.7333 32.8888L14.5921 33.6873L14.6029 33.6711ZM50.9853 38.1976C50.1758 39.4277 48.7253 40.5985 46.7913 41.575C43.2057 43.3878 38.3924 44.3913 33.2477 44.3913C29.7926 44.3913 26.495 43.9435 23.6157 43.0964C34.2039 42.627 42.581 38.1868 43.4339 32.4032C43.4828 32.0903 43.51 31.7504 43.51 31.4051V28.9126C48.546 30.5257 51.7459 33.2071 51.7459 35.8939C51.7459 36.66 51.4905 37.4369 50.9853 38.1976ZM42.1355 23.1668C41.9399 23.2908 41.7335 23.4041 41.5325 23.5174C41.3152 23.6361 41.087 23.7548 40.8534 23.8735L40.6904 23.9544C40.1472 24.2188 39.5876 24.4562 39.0172 24.6666C37.8003 25.1306 36.4747 25.5244 35.0677 25.8266L34.9536 25.8427C32.5741 26.3445 30.0479 26.6035 27.4294 26.6035C26.8752 26.6035 26.3048 26.5873 25.6638 26.5603C24.235 26.501 22.779 26.3499 21.334 26.1125L21.2742 26.1017C14.4073 24.9471 9.46365 21.9474 8.97471 18.6186C8.96928 18.5647 8.95842 18.5053 8.94755 18.4028C8.93669 18.3057 8.93125 18.2032 8.93125 18.1007V18.0144L9.00188 18.0737C9.12683 18.1762 9.25721 18.2841 9.37673 18.3813C10.2568 19.088 11.2727 19.73 12.3973 20.2965C16.4337 22.3413 21.7686 23.4635 27.4185 23.4635C31.6451 23.4635 35.725 22.8323 39.2128 21.6453C39.8538 21.4241 40.4242 21.2083 40.9458 20.9871C41.4238 20.7875 41.9128 20.5663 42.4452 20.2965L42.543 20.248C42.6462 20.194 42.7548 20.1401 42.8309 20.0915L43.1514 19.9135C43.2927 19.8379 43.4339 19.7624 43.5589 19.6815C43.6458 19.6275 43.7327 19.579 43.8142 19.525L43.8903 19.4765C44.0261 19.4009 44.1565 19.3146 44.2651 19.2391C44.7649 18.91 45.2104 18.5809 45.6124 18.2518C45.7156 18.1708 45.8188 18.0845 45.9058 18.0036V18.0953C45.9058 18.3057 45.8949 18.4676 45.8732 18.6132C45.6341 20.2426 44.3412 21.8072 42.1192 23.156L42.1355 23.1668ZM3.25958 31.3188C3.47689 31.5023 3.69962 31.6911 3.93866 31.8691C4.11794 32.004 4.29721 32.1389 4.47106 32.2576C4.52539 32.3007 4.59058 32.3439 4.63947 32.3763C4.84048 32.5111 5.04149 32.646 5.23706 32.7647C5.40547 32.8726 5.57932 32.9751 5.75316 33.0776L5.82922 33.1208C5.92701 33.1801 6.03023 33.2395 6.12258 33.288C6.32359 33.3959 6.51916 33.5092 6.73104 33.6118C6.93748 33.7143 7.15478 33.8168 7.42098 33.9409C7.64372 34.0488 7.87189 34.1459 8.12722 34.2538C8.25761 34.3131 8.38799 34.3617 8.51837 34.4156C8.73568 34.5073 8.95842 34.5937 9.18115 34.68C9.34957 34.7447 9.51798 34.7987 9.65923 34.8472C9.77874 34.8958 9.9037 34.9336 10.0178 34.9713C10.2568 35.0577 10.5013 35.1332 10.724 35.1979C10.8544 35.2411 10.9848 35.2842 11.1097 35.3166L11.1912 35.3382C11.2727 35.3598 11.3596 35.3868 11.452 35.4137C11.7019 35.4893 11.9518 35.554 12.1908 35.6134C12.4625 35.6889 12.7341 35.7536 13.0166 35.8184C13.2882 35.8777 13.5599 35.9371 13.8369 35.9964C14.1357 36.0558 14.4454 36.1151 14.755 36.1744L14.8528 36.1906C15.1408 36.2446 15.4396 36.2931 15.7275 36.3309C16.0534 36.3795 16.3794 36.428 16.6945 36.4658C16.9009 36.4928 17.1074 36.5143 17.3301 36.5413L17.6887 36.5791C19.0088 36.7086 20.3724 36.7787 21.7468 36.7787C27.4076 36.7787 32.7425 35.6565 36.7681 33.6118C36.9745 33.5038 37.1864 33.3906 37.3602 33.2988C37.4689 33.2449 37.5667 33.1855 37.6427 33.1424C37.8546 33.0237 38.061 32.905 38.2512 32.7809C38.4631 32.6514 38.6641 32.5219 38.8542 32.3924C38.914 32.3493 38.9792 32.3115 39.0172 32.2845C39.2073 32.1497 39.3866 32.0148 39.5767 31.8745C39.68 31.7936 39.7832 31.7127 39.8918 31.6263L40.0385 31.5076C40.1091 31.4483 40.1798 31.389 40.2504 31.3296V31.4159C40.2504 31.594 40.2395 31.7666 40.2178 31.9339C39.5713 36.3309 31.2865 39.9133 21.7577 39.9133C19.9486 39.9133 18.1667 39.7892 16.4663 39.5464L16.4011 39.5356C15.5265 39.4115 14.679 39.2551 13.8695 39.0716C13.4566 38.9799 13.022 38.872 12.5331 38.7371C7.24714 37.302 3.71049 34.6962 3.30304 31.9447C3.28131 31.7666 3.26501 31.5994 3.26501 31.4213V31.3296L3.25958 31.3188Z" fill="url(#paint0_linear_1837_29638)"/>
<defs>
<linearGradient id="paint0_linear_1837_29638" x1="3.05556" y1="-5.29819e-07" x2="45.3039" y2="51.9617" gradientUnits="userSpaceOnUse">
<stop stop-color="#1F53FF"/>
<stop offset="1" stop-color="#9C1FFF"/>
</linearGradient>
</defs>
</svg>
