<svg width="10" height="14" viewBox="0 0 10 14" fill="none" xmlns="http://www.w3.org/2000/svg">
<path d="M7.84403 5.034V3.4612C7.84403 1.82874 6.56815 0.5 5.00065 0.5C3.43315 0.5 2.15727 1.82874 2.15727 3.4612V5.034C0.960812 5.07739 0 6.10106 0 7.35659V11.1733C0 12.456 1.00247 13.5 2.23408 13.5H7.76592C8.99753 13.5 10 12.456 10 11.1733V7.35659C10 6.10106 9.03919 5.07603 7.84273 5.034H7.84403ZM5.32743 9.0243V10.49C5.32743 10.6771 5.18162 10.829 5.00195 10.829C4.82229 10.829 4.67647 10.6771 4.67647 10.49V9.0243C4.44734 8.90092 4.29111 8.65279 4.29111 8.36535C4.29111 7.95588 4.61008 7.6237 5.00325 7.6237C5.39643 7.6237 5.7154 7.95588 5.7154 8.36535C5.7154 8.65279 5.55917 8.90092 5.33003 9.0243H5.32743ZM6.54212 5.02993H3.46049V3.4612C3.46049 2.57582 4.1518 1.85586 5.00195 1.85586C5.8521 1.85586 6.54342 2.57582 6.54342 3.4612V5.02993H6.54212Z" fill="#C59EF8"/>
</svg>
