<svg width="12" height="16" viewBox="0 0 12 16" fill="none" xmlns="http://www.w3.org/2000/svg">
<path d="M9.41284 5.58031V3.64456C9.41284 1.63538 7.88179 0 6.00078 0C4.11978 0 2.58873 1.63538 2.58873 3.64456V5.58031C1.15297 5.63371 0 6.89362 0 8.43888V13.1364C0 14.7151 1.20297 16 2.6809 16H9.3191C10.797 16 12 14.7151 12 13.1364V8.43888C12 6.89362 10.847 5.63204 9.41127 5.58031H9.41284ZM6.39292 10.4914V12.2954C6.39292 12.5257 6.21794 12.7126 6.00234 12.7126C5.78675 12.7126 5.61177 12.5257 5.61177 12.2954V10.4914C5.3368 10.3396 5.14933 10.0342 5.14933 9.68043C5.14933 9.17647 5.53209 8.76763 6.00391 8.76763C6.47572 8.76763 6.85848 9.17647 6.85848 9.68043C6.85848 10.0342 6.67101 10.3396 6.39604 10.4914H6.39292ZM7.85054 5.5753H4.15258V3.64456C4.15258 2.55486 4.98216 1.66875 6.00234 1.66875C7.02252 1.66875 7.8521 2.55486 7.8521 3.64456V5.5753H7.85054Z" fill="#B0B0B0"/>
</svg>
