<svg width="13" height="14" viewBox="0 0 13 14" fill="none" xmlns="http://www.w3.org/2000/svg">
<path fill-rule="evenodd" clip-rule="evenodd" d="M6.49995 2.09922C3.79376 2.09922 1.59995 4.29302 1.59995 6.99922C1.59995 9.70541 3.79376 11.8992 6.49995 11.8992C9.20615 11.8992 11.4 9.70541 11.4 6.99922C11.4 4.29302 9.20615 2.09922 6.49995 2.09922ZM0.199951 6.99922C0.199951 3.51982 3.02056 0.699219 6.49995 0.699219C9.97934 0.699219 12.7999 3.51982 12.7999 6.99922C12.7999 10.4786 9.97934 13.2992 6.49995 13.2992C3.02056 13.2992 0.199951 10.4786 0.199951 6.99922ZM6.49995 4.54922C6.12564 4.54922 5.79995 4.86205 5.79995 5.27566C5.79995 5.66226 5.48655 5.97566 5.09995 5.97566C4.71335 5.97566 4.39995 5.66226 4.39995 5.27566C4.39995 4.11366 5.32786 3.14922 6.49995 3.14922C7.67204 3.14922 8.59995 4.11366 8.59995 5.27566C8.59995 6.19374 8.0207 6.98851 7.19944 7.28171C7.19938 7.39579 7.19934 7.52129 7.19934 7.65306C7.19934 8.03966 6.88594 8.35306 6.49934 8.35306C6.11274 8.35306 5.79934 8.03966 5.79934 7.65306C5.79934 7.3902 5.79949 7.15225 5.79965 6.98001L5.79995 6.70142C5.8005 6.31521 6.11374 6.0021 6.49995 6.0021C6.87426 6.0021 7.19995 5.68927 7.19995 5.27566C7.19995 4.86205 6.87426 4.54922 6.49995 4.54922ZM6.49934 9.09922C6.88594 9.09922 7.19934 9.41262 7.19934 9.79922V9.82383C7.19934 10.2104 6.88594 10.5238 6.49934 10.5238C6.11274 10.5238 5.79934 10.2104 5.79934 9.82383V9.79922C5.79934 9.41262 6.11274 9.09922 6.49934 9.09922Z" fill="white"/>
</svg>
