<svg width="20" height="12" viewBox="0 0 20 12" fill="none" xmlns="http://www.w3.org/2000/svg">
<path d="M6.80702 7.94266C7.64002 7.94266 9.19425 7.18368 10.1172 6.7846C10.5163 6.6119 10.8602 6.46388 11.1084 6.38406C11.5031 6.25781 11.9269 6.21137 12.3303 6.252C12.6655 6.28538 13.0095 6.3028 13.3549 6.3028C15.626 6.3028 17.4211 6.3028 17.5996 4.79209C17.6054 4.73985 17.6098 4.68906 17.6098 4.63681C17.6098 4.02731 17.1831 3.44392 16.4067 2.99405C14.9468 1.94628 12.4043 1.32227 9.60059 1.32227C5.29487 1.32227 1.78151 2.82571 1.60011 4.7442C1.5943 4.79645 1.5914 4.85014 1.5914 4.90384C1.5914 4.95753 1.59575 5.00977 1.60156 5.06782C1.7699 6.55966 3.77836 7.94701 6.80848 7.94701L6.80702 7.94266ZM2.16753 4.78629C2.3199 3.16239 5.65332 1.8418 9.59914 1.8418C12.2461 1.8418 14.7233 2.44259 16.0628 3.41055C16.0715 3.41635 16.0788 3.42216 16.0875 3.42651C16.6999 3.77915 17.0366 4.20726 17.0366 4.63391C17.0366 4.66729 17.0337 4.70067 17.0308 4.73405C16.9248 5.63524 16.0628 5.77891 13.3534 5.77891C13.0298 5.77891 12.7062 5.76295 12.3913 5.73102C11.9022 5.68168 11.3928 5.73683 10.9183 5.8892C10.6411 5.97773 10.2841 6.13301 9.87197 6.3115C9.00124 6.68882 7.51086 7.41877 6.80702 7.41877C4.15858 7.41877 2.30104 6.19396 2.16753 5.01268C2.16463 4.97494 2.16027 4.93721 2.16027 4.89948C2.16027 4.86175 2.16317 4.82402 2.16753 4.78484V4.78629Z" fill="white"/>
<path d="M19.3775 5.83819C19.4326 5.59729 19.4326 5.33462 19.3789 5.05599C19.3847 4.99359 19.3876 4.93264 19.3876 4.87604C19.3876 4.00242 18.8811 3.16072 17.9596 2.50333C16.1906 0.934575 13.1025 0 9.69358 0C4.48085 0 0.227378 2.21599 0.0111484 5.04583C0.00534356 5.1213 0.000989949 5.19676 0.000989949 5.27222C0.000989949 5.3027 0.00389236 5.33317 0.00534356 5.36365C-0.00191246 5.4928 -0.00336366 5.62196 0.0111484 5.74967V7.70879C0.00534356 7.78135 0.000989949 7.85391 0.000989949 7.92792C0.000989949 8.00194 0.00534356 8.07885 0.0125996 8.15866C0.209963 10.3123 3.18638 12 6.78827 12C8.23657 12 9.46574 11.3063 10.454 10.7491C10.8328 10.5357 11.1607 10.35 11.4408 10.2397C11.9255 10.0481 12.4436 9.97847 12.9385 10.0394C13.3463 10.0902 13.7642 10.1149 14.1836 10.1149C16.9003 10.1149 19.167 9.93639 19.3775 7.74652C19.3847 7.66816 19.3891 7.59705 19.3891 7.52739C19.3891 7.46644 19.3862 7.39969 19.3789 7.32567V5.83384L19.3775 5.83819ZM9.69358 0.580481C12.9225 0.580481 15.9468 1.48748 17.5852 2.94594C17.5939 2.9532 17.6012 2.96045 17.6099 2.96626C18.3805 3.51336 18.8057 4.19107 18.8057 4.87604C18.8057 4.93119 18.8028 4.98633 18.797 5.04003C18.6635 6.43464 17.5417 6.88306 14.1807 6.88306C13.786 6.88306 13.3912 6.85839 13.0067 6.81195C12.4146 6.73939 11.7978 6.82066 11.2231 7.04849C10.9198 7.16894 10.5396 7.35615 10.1014 7.57383C9.08407 8.0774 7.68947 8.76817 6.78537 8.76817C3.53902 8.76817 0.76142 7.28504 0.588727 5.46523V5.27658C0.588727 5.25626 0.585825 5.23594 0.581471 5.21562C0.582923 5.17499 0.584374 5.13436 0.587276 5.09372C0.777384 2.60636 4.86107 0.583384 9.69067 0.583384L9.69358 0.580481Z" fill="white"/>
<path d="M5.12373 5.91895C4.179 5.91895 3.44034 5.37184 3.44034 4.67236C3.44034 3.97288 4.18045 3.42578 5.12373 3.42578C6.06702 3.42578 6.80713 3.97288 6.80713 4.67236C6.80713 5.37184 6.06702 5.91895 5.12373 5.91895ZM5.12373 4.00481C4.52584 4.00481 4.02082 4.30956 4.02082 4.67091C4.02082 5.03226 4.52584 5.33702 5.12373 5.33702C5.72163 5.33702 6.22665 5.03226 6.22665 4.67091C6.22665 4.30956 5.72163 4.00481 5.12373 4.00481Z" fill="white"/>
</svg>
