<svg width="12" height="11" viewBox="0 0 12 11" fill="none" xmlns="http://www.w3.org/2000/svg">
<path d="M4.12583 7.11855C4.63067 7.11855 5.57263 6.48607 6.13201 6.1535C6.37387 6.00959 6.58232 5.88624 6.73272 5.81973C6.97195 5.71451 7.22876 5.67582 7.47327 5.70968C7.67644 5.73749 7.88488 5.752 8.09421 5.752C9.47065 5.752 10.5586 5.752 10.6668 4.49309C10.6703 4.44955 10.673 4.40722 10.673 4.36369C10.673 3.85576 10.4144 3.36961 9.94383 2.99472C9.05904 2.12158 7.51813 1.60156 5.8189 1.60156C3.20937 1.60156 1.08006 2.85443 0.970121 4.45318C0.966603 4.49671 0.964844 4.54146 0.964844 4.5862C0.964844 4.63095 0.967482 4.67449 0.971 4.72286C1.07302 5.96606 2.29028 7.12218 4.12671 7.12218L4.12583 7.11855ZM1.31401 4.48825C1.40636 3.135 3.42661 2.0345 5.81802 2.0345C7.42226 2.0345 8.92359 2.53517 9.73539 3.3418C9.74067 3.34663 9.74506 3.35147 9.75034 3.3551C10.1215 3.64897 10.3255 4.00572 10.3255 4.36127C10.3255 4.38908 10.3238 4.4169 10.322 4.44471C10.2578 5.19571 9.73539 5.31543 8.09333 5.31543C7.8972 5.31543 7.70107 5.30213 7.51021 5.27553C7.21381 5.23441 6.9051 5.28036 6.6175 5.40734C6.44951 5.48111 6.23315 5.61051 5.98337 5.75926C5.45566 6.07369 4.55239 6.68198 4.12583 6.68198C2.52071 6.68198 1.39493 5.6613 1.31401 4.6769C1.31225 4.64546 1.30961 4.61402 1.30961 4.58258C1.30961 4.55113 1.31137 4.51969 1.31401 4.48704V4.48825Z" fill="#B9BDFF"/>
<path d="M11.7439 5.36516C11.7773 5.16441 11.7773 4.94552 11.7448 4.71333C11.7483 4.66133 11.7501 4.61053 11.7501 4.56337C11.7501 3.83535 11.4431 3.13393 10.8846 2.5861C9.81249 1.27881 7.94088 0.5 5.87489 0.5C2.71567 0.5 0.137805 2.34666 0.00675659 4.70486C0.00323852 4.76775 0.000599969 4.83063 0.000599969 4.89352C0.000599969 4.91891 0.002359 4.94431 0.00323852 4.96971C-0.00115907 5.07734 -0.00203858 5.18497 0.00675659 5.29139V6.92399C0.00323852 6.98446 0.000599969 7.04493 0.000599969 7.1066C0.000599969 7.16828 0.00323852 7.23237 0.00763611 7.29889C0.12725 9.09354 1.93114 10.5 4.1141 10.5C4.99186 10.5 5.73681 9.92194 6.33576 9.45755C6.56532 9.27978 6.76409 9.12498 6.93383 9.03308C7.22759 8.87344 7.54158 8.81539 7.8415 8.86619C8.08864 8.90851 8.34194 8.92907 8.59612 8.92907C10.2426 8.92907 11.6164 8.78032 11.7439 6.95544C11.7483 6.89013 11.7509 6.83087 11.7509 6.77283C11.7509 6.72203 11.7492 6.6664 11.7448 6.60473V5.36153L11.7439 5.36516ZM5.87489 0.983734C7.83182 0.983734 9.66473 1.73957 10.6577 2.95495C10.663 2.961 10.6674 2.96705 10.6727 2.97188C11.1397 3.4278 11.3974 3.99256 11.3974 4.56337C11.3974 4.60932 11.3956 4.65528 11.3921 4.70002C11.3112 5.8622 10.6313 6.23588 8.59436 6.23588C8.35513 6.23588 8.1159 6.21532 7.88283 6.17662C7.52399 6.11616 7.15019 6.18388 6.80191 6.37375C6.61809 6.47412 6.38765 6.63012 6.12204 6.81152C5.5055 7.23116 4.66028 7.80681 4.11234 7.80681C2.14486 7.80681 0.461467 6.57087 0.356804 5.05436V4.89715C0.356804 4.88022 0.355045 4.86328 0.352407 4.84635C0.353286 4.81249 0.354166 4.77863 0.355925 4.74477C0.471142 2.67197 2.9461 0.986153 5.87314 0.986153L5.87489 0.983734Z" fill="#B9BDFF"/>
<path d="M3.10618 5.43311C2.53361 5.43311 2.08594 4.97719 2.08594 4.39429C2.08594 3.81139 2.53449 3.35547 3.10618 3.35547C3.67786 3.35547 4.12642 3.81139 4.12642 4.39429C4.12642 4.97719 3.67786 5.43311 3.10618 5.43311ZM3.10618 3.83799C2.74382 3.83799 2.43774 4.09195 2.43774 4.39308C2.43774 4.6942 2.74382 4.94816 3.10618 4.94816C3.46854 4.94816 3.77461 4.6942 3.77461 4.39308C3.77461 4.09195 3.46854 3.83799 3.10618 3.83799Z" fill="#B9BDFF"/>
</svg>
