<svg width="16" height="16" viewBox="0 0 16 16" fill="none" xmlns="http://www.w3.org/2000/svg">
<path d="M8.06715 16C6.95896 16 5.91512 15.7889 4.93564 15.3668C3.95614 14.9446 3.10061 14.3705 2.36905 13.6445C1.63747 12.9185 1.05973 12.0669 0.63583 11.0897C0.211943 10.1125 0 9.06895 0 7.95892C0 6.84889 0.211943 5.81258 0.63583 4.84998C1.05973 3.88738 1.63747 3.04671 2.36905 2.32797C3.10061 1.60922 3.95625 1.04154 4.93595 0.624926C5.91566 0.208309 6.95973 0 8.06816 0C9.23708 0 10.3441 0.253201 11.3892 0.759601C11.9387 1.02584 12.4503 1.34394 12.9241 1.71391C13.3731 2.06449 14.1141 1.76945 14.1141 1.19981V1.19981C14.1141 0.859088 14.3903 0.582882 14.731 0.582882H14.7984C15.1763 0.582882 15.4827 0.889257 15.4827 1.26719V3.22741C15.4827 4.33198 14.5872 5.22741 13.4827 5.22741H11.5006C11.1198 5.22741 10.8111 4.912 10.8111 4.53118V4.53118C10.8111 4.15769 11.1138 3.84835 11.4873 3.84835V3.84835C12.0712 3.84835 12.3552 3.17849 11.8881 2.82804C11.54 2.5668 11.169 2.33639 10.7752 2.13678C9.92978 1.70828 9.02743 1.49403 8.06816 1.49403C6.25761 1.49403 4.70928 2.11215 3.42317 3.34839C2.13706 4.58462 1.494 6.0993 1.494 7.89242C1.494 9.72925 2.13042 11.2916 3.40326 12.5795C4.6761 13.8673 6.23107 14.5112 8.06816 14.5112C9.87174 14.5112 11.3954 13.8748 12.6391 12.6021C13.709 11.5072 14.3203 10.2142 14.4731 8.72316C14.5149 8.31438 14.8438 7.98077 15.2547 7.98077V7.98077C15.6663 7.98077 16.0036 8.31521 15.9702 8.72546C15.8153 10.6298 15.0554 12.274 13.6908 13.658C12.1513 15.2193 10.2768 16 8.06715 16ZM11.1915 11.1071C10.9211 11.3776 10.483 11.379 10.2108 11.1103L7.93259 8.86168C7.55185 8.48589 7.33753 7.97322 7.33753 7.43826V4.25096C7.33753 3.87303 7.64391 3.56665 8.02184 3.56665V3.56665C8.39977 3.56665 8.70615 3.87303 8.70615 4.25096V6.85417C8.70615 7.39292 8.92351 7.9089 9.30901 8.28525L11.1856 10.1173C11.4629 10.388 11.4655 10.8331 11.1915 11.1071V11.1071Z" fill="white"/>
</svg>
