<svg width="28" height="33" viewBox="0 0 28 33" fill="none" xmlns="http://www.w3.org/2000/svg">
<path d="M21.9633 11.5094V7.5169C21.9633 3.37297 18.3908 0 14.0018 0C9.61281 0 6.04036 3.37297 6.04036 7.5169V11.5094C2.69027 11.6195 0 14.2181 0 17.4052V27.0939C0 30.3498 2.80693 33 6.25544 33H21.7446C25.1931 33 28 30.3498 28 27.0939V17.4052C28 14.2181 25.3097 11.6161 21.9596 11.5094H21.9633ZM14.9168 21.6386V25.3592C14.9168 25.8342 14.5085 26.2197 14.0055 26.2197C13.5024 26.2197 13.0941 25.8342 13.0941 25.3592V21.6386C12.4525 21.3254 12.0151 20.6956 12.0151 19.9659C12.0151 18.9265 12.9082 18.0832 14.0091 18.0832C15.11 18.0832 16.0031 18.9265 16.0031 19.9659C16.0031 20.6956 15.5657 21.3254 14.9241 21.6386H14.9168ZM18.3179 11.4991H9.68936V7.5169C9.68936 5.2694 11.625 3.4418 14.0055 3.4418C16.3859 3.4418 18.3216 5.2694 18.3216 7.5169V11.4991H18.3179Z" fill="#F1F1F1"/>
</svg>
