<svg width="28" height="33" viewBox="0 0 28 33" fill="none" xmlns="http://www.w3.org/2000/svg">
<path d="M17.6499 0H10.2849C9.45056 0 8.77417 0.674767 8.77417 1.50713C8.77417 2.3395 9.45056 3.01427 10.2849 3.01427H17.6499C18.4843 3.01427 19.1607 2.3395 19.1607 1.50713C19.1607 0.674767 18.4843 0 17.6499 0Z" fill="#CC6963"/>
<path d="M27.0776 13.9094C26.4747 12.4786 25.7193 11.2583 24.8259 10.2415L25.9154 9.15198C26.5183 8.54913 26.511 7.57585 25.9082 6.98026C25.3126 6.39193 24.3466 6.39919 23.7582 6.98752L22.6542 8.09154C21.5139 7.09647 20.1992 6.33382 18.7175 5.78907C17.2285 5.24433 15.6451 4.97559 13.9746 4.97559C12.028 4.97559 10.2122 5.34601 8.51984 6.08687C6.8275 6.82773 5.34578 7.83006 4.08197 9.10114C2.81816 10.3722 1.81582 11.8539 1.08949 13.5463C0.363165 15.2386 0 17.0544 0 18.9937C0 20.933 0.363165 22.7489 1.08949 24.4412C1.81582 26.1336 2.81089 27.608 4.08197 28.8718C5.34578 30.1356 6.8275 31.1307 8.51984 31.8643C10.2122 32.5979 12.028 32.9683 13.9746 32.9683C15.9211 32.9683 17.737 32.6052 19.4366 31.8716C21.1362 31.138 22.6179 30.1429 23.889 28.8864C25.1601 27.6298 26.1624 26.1481 26.896 24.4557C27.6296 22.7634 28 20.9403 28 18.9937C28 17.0472 27.6949 15.3403 27.0921 13.9094H27.0776ZM21.4703 26.4822C19.422 28.5087 16.9235 29.5255 13.9673 29.5255C11.0112 29.5255 8.51258 28.5087 6.46433 26.4749C4.42335 24.4412 3.39922 21.9426 3.39922 18.9865C3.39922 16.0303 4.42335 13.5317 6.46433 11.4835C8.51258 9.44251 11.0112 8.41839 13.9673 8.41839C16.9235 8.41839 19.422 9.44251 21.4703 11.4835C23.5113 13.5317 24.5354 16.0303 24.5354 18.9865C24.5354 21.9426 23.5113 24.4412 21.4703 26.4677V26.4822Z" fill="#CC6963"/>
<path d="M16.1464 19.6549C15.6379 19.1465 15.3547 18.4492 15.3547 17.7301V13.4157C15.3547 12.595 14.6864 11.9268 13.8657 11.9268C13.0449 11.9268 12.3767 12.595 12.3767 13.4157V18.9867C12.3767 19.6912 12.6527 20.3667 13.1394 20.8751L17.6208 25.5454C18.2164 26.1701 19.2042 26.1846 19.8216 25.589C20.4462 24.9862 20.4535 23.9911 19.8434 23.381L16.1536 19.6622L16.1464 19.6549Z" fill="#CC6963"/>
</svg>
