<svg width="40" height="42" viewBox="0 0 40 42" fill="none" xmlns="http://www.w3.org/2000/svg">
<path d="M33.8838 8.34575C31.2558 7.13924 28.4814 6.28331 25.6315 5.7998C25.2415 6.49888 24.8887 7.21813 24.5744 7.95455C21.5387 7.49585 18.4517 7.49585 15.416 7.95455C15.1016 7.21821 14.7487 6.49896 14.3589 5.7998C11.5072 6.28739 8.731 7.14536 6.10032 8.35206C0.87774 16.1003 -0.538019 23.6561 0.169861 31.1047C3.22833 33.3707 6.65164 35.094 10.291 36.1997C11.1104 35.0945 11.8356 33.9221 12.4587 32.6947C11.2752 32.2515 10.1329 31.7046 9.0451 31.0605C9.3314 30.8523 9.6114 30.6378 9.88197 30.4296C13.0473 31.9222 16.5021 32.6962 19.9999 32.6962C23.4978 32.6962 26.9526 31.9222 30.1179 30.4296C30.3916 30.6536 30.6716 30.8681 30.9548 31.0605C29.8648 31.7057 28.7205 32.2536 27.5349 32.6979C28.1572 33.9246 28.8824 35.0961 29.7026 36.1997C33.345 35.0984 36.771 33.3759 39.83 31.1078C40.6606 22.4699 38.4111 14.9835 33.8838 8.34575ZM13.3553 26.5239C11.3827 26.5239 9.75298 24.7288 9.75298 22.5204C9.75298 20.312 11.326 18.5011 13.349 18.5011C15.372 18.5011 16.9891 20.312 16.9545 22.5204C16.9199 24.7288 15.3657 26.5239 13.3553 26.5239ZM26.6446 26.5239C24.6688 26.5239 23.0454 24.7288 23.0454 22.5204C23.0454 20.312 24.6185 18.5011 26.6446 18.5011C28.6707 18.5011 30.2752 20.312 30.2406 22.5204C30.206 24.7288 28.6549 26.5239 26.6446 26.5239Z" fill="white"/>
</svg>
