<svg width="41" height="44" viewBox="0 0 41 44" fill="none" xmlns="http://www.w3.org/2000/svg">
<path d="M22.6764 21.9998C22.6764 28.3238 17.6 33.4503 11.3384 33.4503C5.07673 33.4503 0 28.3238 0 21.9998C0 15.6758 5.07635 10.5488 11.3384 10.5488C17.6004 10.5488 22.6764 15.6758 22.6764 21.9998Z" fill="#F1F1F1"/>
<path d="M35.0151 21.9999C35.0151 27.9526 32.477 32.7801 29.346 32.7801C26.2149 32.7801 23.6768 27.9526 23.6768 21.9999C23.6768 16.0472 26.2145 11.2197 29.3456 11.2197C32.4766 11.2197 35.0151 16.0457 35.0151 21.9999Z" fill="#F1F1F1"/>
<path d="M40.002 21.9991C40.002 27.3313 39.1095 31.6565 38.0081 31.6565C36.9068 31.6565 36.0146 27.3324 36.0146 21.9991C36.0146 16.6658 36.9072 12.3418 38.0081 12.3418C39.1091 12.3418 40.002 16.6655 40.002 21.9991Z" fill="#F1F1F1"/>
</svg>
