<svg width="41" height="42" viewBox="0 0 41 42" fill="none" xmlns="http://www.w3.org/2000/svg">
<path d="M35.9069 12.8071C35.9313 13.1612 35.9313 13.5152 35.9313 13.8725C35.9313 24.7593 27.6761 37.3152 12.5813 37.3152V37.3087C8.12221 37.3152 3.75576 36.0328 0.00195312 33.615C0.650338 33.6933 1.30197 33.7325 1.95523 33.7341C5.65054 33.7373 9.24022 32.4925 12.1474 30.2003C8.63571 30.1334 5.55629 27.8347 4.48052 24.4787C5.71067 24.7169 6.97819 24.668 8.18558 24.3368C4.35702 23.5602 1.6026 20.183 1.6026 16.261C1.6026 16.2251 1.6026 16.1908 1.6026 16.1566C2.74337 16.7945 4.02064 17.1485 5.32716 17.1877C1.72123 14.7682 0.609713 9.95206 2.78725 6.18661C6.95381 11.3339 13.1013 14.4631 19.7005 14.7943C19.0391 11.9327 19.9426 8.93402 22.0747 6.92241C25.38 3.80302 30.5784 3.96291 33.6855 7.2797C35.5234 6.91588 37.2849 6.23882 38.8969 5.27951C38.2843 7.18671 37.0022 8.80676 35.2894 9.83622C36.916 9.64371 38.5053 9.20647 40.002 8.5392C38.9002 10.1968 37.5124 11.6406 35.9069 12.8071Z" fill="white"/>
</svg>
