<svg width="40" height="40" viewBox="0 0 40 40" fill="none" xmlns="http://www.w3.org/2000/svg">
<circle cx="20" cy="20" r="20" fill="#F6F8FF"/>
<path d="M27.0503 20.8828C27.6037 21.8777 27.9229 23.0217 27.9229 24.2383C27.9229 27.1751 26.0804 29.687 23.4939 30.6818C22.7249 30.9803 21.8918 31.1419 21.0213 31.1419H12.5198C12.3581 31.1419 12.2275 31.0113 12.2275 30.8476V21.5606C12.2275 21.3968 12.3581 21.2663 12.5198 21.2663H21.0213C22.3332 21.2663 23.5353 20.7999 24.4783 20.0269C24.8534 19.7181 25.1871 19.3595 25.4669 18.9637C26.1011 18.0746 26.4721 16.9865 26.4721 15.8155C26.4721 13.7202 25.2845 11.8963 23.5457 10.9865C23.0959 10.7481 22.6089 10.572 22.0949 10.4704C21.7488 10.3999 21.3882 10.3626 21.0213 10.3626H13.9705C13.8089 10.3626 13.6783 10.4932 13.6783 10.6569V17.0404C13.6783 17.2041 13.8089 17.3347 13.9705 17.3347H21.0213C21.9125 17.3347 22.7623 17.5046 23.5457 17.8134C24.0203 18.002 24.4597 18.2341 24.8762 18.516C24.8866 18.5243 24.8949 18.5305 24.9053 18.5388C24.9073 18.5388 24.9094 18.5409 24.9115 18.543C24.9384 18.5699 24.955 18.6072 24.955 18.6466C24.955 18.6735 24.9467 18.7005 24.9343 18.7233C24.9301 18.7274 24.9281 18.7316 24.9239 18.7357C24.6959 19.059 24.4327 19.3616 24.1384 19.6269C24.1322 19.6352 24.1239 19.6414 24.1156 19.6476C24.0908 19.6642 24.0638 19.6725 24.0327 19.6725C24.0058 19.6725 23.9809 19.6642 23.9581 19.6518C23.954 19.6497 23.9498 19.6476 23.9457 19.6435C23.1001 19.1005 22.099 18.7854 21.0213 18.7854H12.9529C12.5529 18.7854 12.2275 18.4621 12.2275 18.0601V9.20617C12.2275 9.04244 12.3581 8.91187 12.5198 8.91187H21.0213C21.8918 8.91187 22.7249 9.07352 23.4939 9.37197C26.0804 10.3668 27.9229 12.8787 27.9229 15.8155C27.9229 17.401 27.3861 18.8621 26.4866 20.0269C26.184 20.4165 25.842 20.773 25.4669 21.0901C24.897 21.5709 24.2483 21.9626 23.5457 22.2404C22.7623 22.5471 21.9125 22.717 21.0213 22.717H13.9705C13.8089 22.717 13.6783 22.8476 13.6783 23.0113V29.3968C13.6783 29.5606 13.8089 29.6911 13.9705 29.6911H21.0213C21.3882 29.6911 21.7488 29.6538 22.0949 29.5834C22.6089 29.4818 23.0959 29.3056 23.5457 29.0673C25.2845 28.1575 26.4721 26.3336 26.4721 24.2383C26.4721 23.3326 26.2483 22.4766 25.8545 21.7243C25.7861 21.5917 25.8213 21.4321 25.9436 21.343C26.1695 21.1771 26.3871 20.9989 26.5923 20.8082C26.7332 20.6777 26.9571 20.717 27.0503 20.8828Z" fill="url(#paint0_linear_1522_21274)"/>
<defs>
<linearGradient id="paint0_linear_1522_21274" x1="29.8441" y1="12.8497" x2="12.2275" y2="28.8082" gradientUnits="userSpaceOnUse">
<stop stop-color="#45CEFA"/>
<stop offset="1" stop-color="#8945FA"/>
</linearGradient>
</defs>
</svg>
