<svg width="40" height="40" viewBox="0 0 40 40" fill="none" xmlns="http://www.w3.org/2000/svg">
<path d="M20 40C31.0457 40 40 31.0457 40 20C40 8.9543 31.0457 0 20 0C8.9543 0 0 8.9543 0 20C0 31.0457 8.9543 40 20 40Z" fill="#F0B90B"/>
<path d="M12.5416 19.9994L9.48164 23.0807L6.40039 19.9994L9.48164 16.9182L12.5416 19.9994ZM20.0004 12.5407L25.2704 17.8107L28.3516 14.7294L23.0816 9.48066L20.0004 6.39941L16.9191 9.48066L11.6704 14.7294L14.7516 17.8107L20.0004 12.5407ZM30.5191 16.9182L27.4591 19.9994L30.5404 23.0807L33.6004 19.9994L30.5191 16.9182ZM20.0004 27.4582L14.7304 22.1882L11.6704 25.2694L16.9404 30.5394L20.0004 33.5994L23.0816 30.5182L28.3516 25.2482L25.2704 22.1882L20.0004 27.4582ZM20.0004 23.0807L23.0816 19.9994L20.0004 16.9182L16.9191 19.9994L20.0004 23.0807Z" fill="white"/>
</svg>
