<svg width="2500" height="2500" viewBox="0 0 2500 2500" fill="none" xmlns="http://www.w3.org/2000/svg">
<path d="M1243.13 2486.26C1929.69 2486.26 2486.26 1929.69 2486.26 1243.13C2486.26 556.568 1929.69 0 1243.13 0C556.568 0 0 556.568 0 1243.13C0 1929.69 556.568 2486.26 1243.13 2486.26Z" fill="#ED4E33"/>
<path d="M1019.02 665.76C679.894 796.157 648.828 1130.1 551.586 1286.06C453.192 1443.88 227.775 1530.95 258.601 1611.38C289.424 1691.8 515.11 1605.42 693.66 1656.73C870.094 1707.44 1116.27 1934.81 1455.4 1804.41C1628.16 1737.98 1753.25 1601.26 1810.78 1439.32C1816.97 1421.93 1805.4 1403.34 1787.05 1401.63C1775.64 1400.55 1764.7 1406.54 1759.55 1416.78C1707.52 1520.59 1618.25 1606.09 1501.43 1650.99C1308.58 1725.14 1097.57 1666.92 967.979 1520.92C938.546 1487.76 913.372 1450.02 893.5 1408.3C888.037 1396.82 882.841 1385.16 878.235 1373.08C873.602 1361.01 869.665 1348.86 866.049 1336.66C967.979 1289.07 1085.6 1238.66 1218.95 1187.4C1349.69 1137.13 1468.68 1096.36 1574.62 1063.74C1646.3 1041.69 1711.99 1023.34 1771.3 1008.34C1775.59 1007.27 1779.82 1006.2 1784.02 1005.15C1793 1002.92 1802.21 1007.73 1805.53 1016.36L1805.59 1016.52C1807.55 1021.65 1809.23 1026.8 1811.04 1031.95C1822.77 1065.19 1831.57 1098.77 1837.37 1132.44C1839.92 1147.16 1855.99 1155.18 1869.17 1148.1C1917.85 1121.92 1962.39 1096.38 2002.18 1071.81C2150.48 980.338 2232.69 902.76 2215.82 858.793C2198.97 814.8 2086.06 812.279 1914.74 843.664C1860.3 853.643 1799.94 867.055 1734.89 883.66C1723.64 886.531 1712.26 889.508 1700.74 892.566C1645.99 907.106 1588.26 923.763 1528.13 942.407C1416.32 977.092 1296.37 1018.64 1172.53 1066.26C1056.68 1110.81 946.875 1157.01 846.178 1203.04C844.947 1007.67 962.864 822.981 1155.71 748.837C1272.51 703.931 1395.97 707.608 1504 749.91C1514.66 754.095 1526.79 751.197 1534.59 742.749C1547.07 729.201 1543.24 707.633 1527.04 698.835C1376.1 617.1 1191.79 599.342 1019.02 665.76Z" fill="white"/>
</svg>
