<svg width="40" height="40" viewBox="0 0 40 40" fill="none" xmlns="http://www.w3.org/2000/svg">
<circle cx="20" cy="20" r="20" fill="#1265E9"/>
<path d="M28.0631 25.9985H27.229C26.9762 25.9985 26.7733 25.8042 26.7733 25.5656V24.9034C26.7733 24.6633 26.9778 24.4706 27.229 24.4706H28.0631C29.348 24.4706 30.3898 23.481 30.3898 22.2605V17.741C30.3898 16.5205 29.348 15.531 28.0631 15.531H11.9369C10.652 15.531 9.6102 16.5205 9.6102 17.741V22.2605C9.6102 23.481 10.652 24.4706 11.9369 24.4706H22.5755V19.1542C22.5755 18.9141 22.78 18.7214 23.0312 18.7214H23.7284C23.9812 18.7214 24.1841 18.9156 24.1841 19.1542V25.2353C24.1841 25.6574 23.8234 26 23.379 26H11.9369C9.76317 26 8 24.3253 8 22.2605V17.741C8 15.6747 9.76317 14 11.9369 14H28.0631C30.2368 14 32 15.6747 32 17.7395V22.259C32 24.3237 30.2368 25.9985 28.0631 25.9985Z" fill="white"/>
</svg>
