<svg width="2500" height="2500" viewBox="0 0 2500 2500" fill="none" xmlns="http://www.w3.org/2000/svg">
<g clip-path="url(#clip0_700_348)">
<path d="M1250 2500C1940.36 2500 2500 1940.36 2500 1250C2500 559.644 1940.36 0 1250 0C559.644 0 0 559.644 0 1250C0 1940.36 559.644 2500 1250 2500Z" fill="#7B3FE4"/>
<path d="M2083.32 1279.18V1656.28C2083.19 1679.8 2076.98 1702.88 2065.29 1723.27C2053.6 1743.65 2036.85 1760.64 2016.66 1772.58L1691.13 1960.74C1670.97 1972.8 1647.94 1979.17 1624.47 1979.17C1601 1979.17 1577.96 1972.8 1557.8 1960.74L1232.28 1772.58C1212.09 1760.64 1195.33 1743.65 1183.65 1723.27C1171.97 1702.88 1165.75 1679.8 1165.62 1656.28V1550.44L1332.28 1453.36V1637.34L1623.95 1807.21L1915.62 1637.34V1298.38L1623.95 1128.52L940.616 1525.75C920.266 1537.25 897.303 1543.3 873.947 1543.3C850.591 1543.3 827.631 1537.25 807.281 1525.75L481.759 1336.8C461.881 1324.68 445.447 1307.62 434.044 1287.28C422.641 1266.93 416.653 1243.98 416.656 1220.64V843.528C416.791 820.012 423.006 796.934 434.691 776.55C446.378 756.165 463.134 739.171 483.322 727.234L808.844 539.071C829.047 527.131 852.066 520.834 875.509 520.834C898.956 520.834 921.975 527.131 942.178 539.071L1267.7 727.234C1287.89 739.171 1304.64 756.165 1316.33 776.55C1328.02 796.934 1334.23 820.012 1334.37 843.528V949.368L1166.66 1045.8V862.868L874.991 693L583.322 862.868V1201.43L874.991 1371.3L1558.32 974.065C1578.67 962.559 1601.63 956.515 1624.99 956.515C1648.35 956.515 1671.31 962.559 1691.66 974.065L2017.18 1163.01C2037.25 1175.01 2053.89 1192.01 2065.48 1212.36C2077.07 1232.72 2083.22 1255.73 2083.32 1279.18Z" fill="white"/>
</g>
<defs>
<clipPath id="clip0_700_348">
<rect width="2500" height="2500" fill="white"/>
</clipPath>
</defs>
</svg>
