<svg width="32" height="32" viewBox="0 0 32 32" fill="none" xmlns="http://www.w3.org/2000/svg">
<path d="M15.8919 32C24.6687 32 31.7838 24.8366 31.7838 16C31.7838 7.16344 24.6687 0 15.8919 0C7.11504 0 0 7.16344 0 16C0 24.8366 7.11504 32 15.8919 32Z" fill="#0088CC"/>
<path fill-rule="evenodd" clip-rule="evenodd" d="M11.4703 10.5743L20.3836 10.5742C20.699 10.5742 21.0141 10.6208 21.3434 10.7754C21.7381 10.9607 21.9474 11.2527 22.0941 11.4686C22.1055 11.4854 22.1162 11.5027 22.1261 11.5204C22.2985 11.8295 22.3874 12.1631 22.3874 12.522C22.3874 12.8631 22.3068 13.2346 22.1261 13.5584C22.1244 13.5616 22.1226 13.5646 22.1208 13.5677L16.4895 23.3068C16.3654 23.5216 16.1368 23.6534 15.89 23.6525C15.6431 23.6516 15.4155 23.5182 15.2928 23.3026L9.76495 13.5842C9.76336 13.5816 9.76177 13.579 9.76018 13.5763C9.63367 13.3664 9.43803 13.0418 9.4038 12.623C9.37236 12.2378 9.45835 11.8518 9.65058 11.5172C9.84282 11.1825 10.1322 10.915 10.4803 10.7512C10.8535 10.5756 11.2318 10.5743 11.4703 10.5743ZM15.2014 11.9655H11.4703C11.2252 11.9655 11.1311 11.9807 11.0653 12.0117C10.9743 12.0544 10.8979 12.1248 10.8468 12.2137C10.7958 12.3027 10.7727 12.4058 10.7811 12.509C10.7859 12.5681 10.8098 12.6358 10.9511 12.8703C10.9541 12.8752 10.957 12.8802 10.9598 12.8852L15.2014 20.3423V11.9655ZM16.5834 11.9655V20.3791L20.9233 12.8734C20.9722 12.7838 21.0055 12.6543 21.0055 12.522C21.0055 12.4148 20.9834 12.3216 20.934 12.2256C20.8822 12.1506 20.8506 12.1109 20.8242 12.0837C20.8016 12.0604 20.7842 12.048 20.7595 12.0364C20.6569 11.9883 20.5519 11.9655 20.3836 11.9655H16.5834Z" fill="white"/>
</svg>
